<?xml version="1.0" encoding="utf-8"?>
<!-- Generator: Adobe Illustrator 21.1.0, SVG Export Plug-In . SVG Version: 6.00 Build 0)  -->
<svg version="1.1" id="Слой_1" xmlns="http://www.w3.org/2000/svg" xmlns:xlink="http://www.w3.org/1999/xlink" x="0px" y="0px"
	 viewBox="0 0 479 473" style="enable-background:new 0 0 479 473;" xml:space="preserve">
<style type="text/css">
	.st0{fill:none;stroke:#000000;stroke-miterlimit:10;}
	.st1{fill:none;stroke:#2B2A29;stroke-miterlimit:22.9256;}
	.st2{fill:none;stroke:#000000;stroke-miterlimit:22.9256;}
</style>
<circle class="st0" cx="239.6" cy="235.7" r="228"/>
<path class="st1" d="M391.6,379c0-65.7,0-131.3,0-196.9c-20.3-17.1-40.7-34.1-61-51.3c-20.5,16.6-40.9,33.3-61.3,49.9
	c0,18,0,36,0,53.9c-39.1,0-78.3,0-117.4,0"/>
<path class="st1" d="M170.3,234.6c0-34.6,0-69.2,0-103.8c-13.7,0-27.5,0-41.2,0c0,34.4,0,68.9,0,103.3c-12.4,0-24.9,0-37.5,0
	c-0.1,48.3-0.1,96.5-0.3,144.9l0,0l0,0"/>
<path class="st1" d="M151.3,110.4c4.9-5.1,9.8-10.1,15-13.5c5.2-3.3,10.8-5,16.1-5.6c5.2-0.7,10.1-0.3,14.8,1.4
	c4.6,1.7,9,4.8,12.8,5.6c3.9,0.8,7.3-0.7,10.3-3.3c3-2.6,5.5-6.4,9.4-9.8c3.9-3.3,9.1-6.2,15-7.6c5.9-1.4,12.4-1.2,18.9-1"/>
<path class="st1" d="M252.7,113.2c6.5-0.7,13-1.4,19.3-2.6c6.3-1.2,12.5-2.8,18.1-5.5c5.6-2.7,10.7-6.5,16-11.1
	c5.4-4.6,10.9-10.1,16.6-15.5"/>
<rect x="295.6" y="214.6" class="st1" width="13.6" height="26.6"/>
<rect x="322.1" y="214.6" class="st1" width="13.6" height="26.6"/>
<rect x="349.5" y="214.6" class="st1" width="13.6" height="26.6"/>
<rect x="295.6" y="261.8" class="st1" width="13.6" height="26.6"/>
<rect x="322.1" y="261.8" class="st1" width="13.6" height="26.6"/>
<rect x="349.5" y="261.8" class="st1" width="13.6" height="26.6"/>
<rect x="295.6" y="309.8" class="st1" width="13.6" height="26.6"/>
<rect x="322.1" y="309.8" class="st1" width="13.6" height="26.6"/>
<rect x="349.5" y="309.8" class="st1" width="13.6" height="26.6"/>
<rect x="159.3" y="262.5" class="st2" width="27.3" height="13.3"/>
<rect x="118.3" y="262.5" class="st2" width="27.3" height="13.3"/>
<rect x="200.1" y="262.5" class="st2" width="27.3" height="13.3"/>
<rect x="241.1" y="262.5" class="st2" width="27.3" height="13.3"/>
<path class="st1" d="M86.2,379c103.5,0,207,0,310.5,0"/>
</svg>
