<?xml version="1.0" encoding="UTF-8"?>
<!DOCTYPE svg PUBLIC "-//W3C//DTD SVG 1.1//EN" "http://www.w3.org/Graphics/SVG/1.1/DTD/svg11.dtd">
<!-- Creator: CorelDRAW 2018 (64-Bit) -->
<svg xmlns="http://www.w3.org/2000/svg" xml:space="preserve" width="210mm" height="297mm" version="1.1" style="shape-rendering:geometricPrecision; text-rendering:geometricPrecision; image-rendering:optimizeQuality; fill-rule:evenodd; clip-rule:evenodd"
viewBox="0 0 21000 29700"
 xmlns:xlink="http://www.w3.org/1999/xlink">
 <defs>
  <style type="text/css">
   <![CDATA[
    .str0 {stroke:#2B2A29;stroke-width:500;stroke-miterlimit:22.9256}
    .fil0 {fill:none}
    .fil1 {fill:#2B2A29}
   ]]>
  </style>
 </defs>
 <g id="Слой_x0020_1">
  <metadata id="CorelCorpID_0Corel-Layer"/>
  <g id="_1552460553824">
   <path class="fil0 str0" d="M18783.78 17726.86c0,-3201.47 0,-6402.93 0,-9604.4 -992.19,-833.44 -1984.38,-1666.87 -2976.57,-2500.31 -996.6,811.39 -1993.2,1622.78 -2989.8,2434.17 0,877.54 0,1755.07 0,2632.61 -1909.41,0 -3818.83,0 -5728.24,0"/>
   <path class="fil0 str0" d="M7989.05 10687.21c0,-1688.35 0,-3376.71 0,-5065.06 -670.38,0 -1340.76,0 -2011.14,0 0,1680.11 0,3360.21 0,5040.32 -608.54,0 -1217.09,0 -1825.63,0 -4.41,2354.8 -8.81,4709.59 -13.22,7064.39 0,0 0,0 0,0 0,0 0,0 0,0"/>
   <path class="fil0 str0" d="M7062.71 4629.96c238.13,-246.95 476.25,-493.89 732.02,-657.05 255.76,-163.16 529.17,-242.54 784.93,-273.4 255.76,-30.87 493.89,-13.23 718.79,70.56 224.89,83.78 436.55,233.71 626.17,273.4 189.62,39.68 357.19,-30.87 502.71,-158.75 145.52,-127.89 269,-313.09 458.62,-476.25 189.61,-163.16 445.38,-304.28 732.01,-370.42 286.63,-66.15 604.13,-57.33 921.63,-48.51"/>
   <path class="fil0 str0" d="M12010.42 4762.25c317.5,-35.28 635,-70.55 943.68,-127.88 308.68,-57.33 608.55,-136.7 881.95,-268.99 273.4,-132.3 520.35,-317.5 780.52,-542.39 260.17,-224.9 533.58,-489.49 806.98,-754.07"/>
   <rect class="fil1" x="14100.67" y="9709.95" width="661.46" height="1296.46"/>
   <rect class="fil1" x="15397.12" y="9709.95" width="661.46" height="1296.46"/>
   <rect class="fil1" x="16733.27" y="9709.95" width="661.46" height="1296.46"/>
   <rect class="fil1" x="14100.67" y="12011.82" width="661.46" height="1296.46"/>
   <rect class="fil1" x="15397.12" y="12011.82" width="661.46" height="1296.46"/>
   <rect class="fil1" x="16733.27" y="12011.82" width="661.46" height="1296.46"/>
   <rect class="fil1" x="14100.67" y="14353.39" width="661.46" height="1296.46"/>
   <rect class="fil1" x="15397.12" y="14353.39" width="661.46" height="1296.46"/>
   <rect class="fil1" x="16733.27" y="14353.39" width="661.46" height="1296.46"/>
   <rect class="fil1" x="7453.01" y="12044.9" width="1329.54" height="648.23"/>
   <rect class="fil1" x="5455.39" y="12044.9" width="1329.54" height="648.23"/>
   <rect class="fil1" x="9444.01" y="12044.9" width="1329.54" height="648.23"/>
   <rect class="fil1" x="11441.62" y="12044.9" width="1329.54" height="648.23"/>
   <path class="fil0 str0" d="M3889.38 17726.86c5048.11,0 10096.24,0 15144.35,0"/>
  </g>
 </g>
</svg>
