<?xml version="1.0" encoding="utf-8"?>
<!-- Generator: Adobe Illustrator 21.1.0, SVG Export Plug-In . SVG Version: 6.00 Build 0)  -->
<svg version="1.1" id="Слой_1" xmlns="http://www.w3.org/2000/svg" xmlns:xlink="http://www.w3.org/1999/xlink" x="0px" y="0px"
	 viewBox="0 0 429.3 438" style="enable-background:new 0 0 429.3 438;" xml:space="preserve">
<style type="text/css">
	.st0{fill:none;stroke:#2B2A29;stroke-width:15;stroke-miterlimit:22.9256;}
	.st1{fill:#2B2A29;}
</style>
<g id="Слой_x0020_1">
	<g id="_1552460553824">
		<path class="st0" d="M422.2,427.4c0-90.8,0-181.5,0-272.3c-28.1-23.6-56.3-47.2-84.4-70.9c-28.3,23-56.5,46-84.8,69
			c0,24.9,0,49.8,0,74.6c-54.1,0-108.3,0-162.4,0"/>
		<path class="st0" d="M116.2,227.8c0-47.9,0-95.7,0-143.6c-19,0-38,0-57,0c0,47.6,0,95.3,0,142.9c-17.2,0-34.5,0-51.8,0
			c-0.1,66.8-0.2,133.5-0.4,200.3l0,0l0,0"/>
		<path class="st0" d="M90,56.1c6.8-7,13.5-14,20.8-18.6c7.2-4.6,15-6.9,22.2-7.7c7.2-0.9,14-0.4,20.4,2c6.4,2.4,12.4,6.6,17.7,7.7
			c5.4,1.1,10.1-0.9,14.3-4.5c4.1-3.6,7.6-8.9,13-13.5c5.4-4.6,12.6-8.6,20.7-10.5c8.1-1.9,17.1-1.6,26.1-1.4"/>
		<path class="st0" d="M230.2,59.9c9-1,18-2,26.7-3.6c8.7-1.6,17.3-3.9,25-7.6c7.7-3.8,14.8-9,22.1-15.4
			c7.4-6.4,15.1-13.9,22.9-21.4"/>
		<rect x="289.5" y="200.1" class="st1" width="18.8" height="36.8"/>
		<rect x="326.2" y="200.1" class="st1" width="18.8" height="36.8"/>
		<rect x="364.1" y="200.1" class="st1" width="18.8" height="36.8"/>
		<rect x="289.5" y="265.4" class="st1" width="18.8" height="36.8"/>
		<rect x="326.2" y="265.4" class="st1" width="18.8" height="36.8"/>
		<rect x="364.1" y="265.4" class="st1" width="18.8" height="36.8"/>
		<rect x="289.5" y="331.8" class="st1" width="18.8" height="36.8"/>
		<rect x="326.2" y="331.8" class="st1" width="18.8" height="36.8"/>
		<rect x="364.1" y="331.8" class="st1" width="18.8" height="36.8"/>
		<rect x="101" y="266.3" class="st1" width="37.7" height="18.4"/>
		<rect x="44.4" y="266.3" class="st1" width="37.7" height="18.4"/>
		<rect x="157.5" y="266.3" class="st1" width="37.7" height="18.4"/>
		<rect x="214.1" y="266.3" class="st1" width="37.7" height="18.4"/>
		<path class="st0" d="M0,427.4c143.1,0,286.2,0,429.3,0"/>
	</g>
</g>
</svg>
