<?xml version="1.0" encoding="utf-8"?>
<!-- Generator: Adobe Illustrator 21.1.0, SVG Export Plug-In . SVG Version: 6.00 Build 0)  -->
<svg version="1.1" id="Слой_1" xmlns="http://www.w3.org/2000/svg" xmlns:xlink="http://www.w3.org/1999/xlink" x="0px" y="0px"
	 viewBox="0 0 452.8 430.6" style="enable-background:new 0 0 452.8 430.6;" xml:space="preserve">
<style type="text/css">
	.st0{fill:none;stroke:#000000;stroke-width:10;stroke-miterlimit:10;}
	.st1{stroke:#000000;stroke-miterlimit:10;}
</style>
<g id="Слой_x0020_1">
	<path class="st0" d="M11.7,80c35.8-21,71.6-42,107.4-63c36,20.6,72,41.2,108,61.8c0,111.2,0,222.5,0,333.7
		c-72.2-0.8-144.5-1.6-216.7-2.4C10.9,300,11.3,190,11.7,80L11.7,80z"/>
	<rect x="70.1" y="116.8" class="st1" width="25.7" height="25.7"/>
	<rect x="141.4" y="116.8" class="st1" width="25.7" height="25.7"/>
	<rect x="70.1" y="186.9" class="st1" width="25.7" height="25.7"/>
	<rect x="141.4" y="186.9" class="st1" width="25.7" height="25.7"/>
	<rect x="70.1" y="260.2" class="st1" width="25.7" height="25.7"/>
	<rect x="141.4" y="260.2" class="st1" width="25.7" height="25.7"/>
	<rect x="70.1" y="330.3" class="st1" width="25.7" height="25.7"/>
	<rect x="141.4" y="330.3" class="st1" width="25.7" height="25.7"/>
	<path class="st0" d="M226.8,82c35.8-21,71.6-42,107.4-63c36,20.6,72,41.2,108,61.8c0,111.2,0,222.5,0,333.7
		c-72.2-0.8-144.5-1.6-216.7-2.4C226,302,226.4,192,226.8,82L226.8,82z"/>
	<rect x="285.2" y="116.8" class="st1" width="25.7" height="25.7"/>
	<rect x="356.5" y="116.8" class="st1" width="25.7" height="25.7"/>
	<rect x="285.2" y="186.9" class="st1" width="25.7" height="25.7"/>
	<rect x="356.5" y="186.9" class="st1" width="25.7" height="25.7"/>
	<rect x="285.2" y="260.2" class="st1" width="25.7" height="25.7"/>
	<rect x="356.5" y="260.2" class="st1" width="25.7" height="25.7"/>
	<rect x="285.2" y="330.3" class="st1" width="25.7" height="25.7"/>
	<rect x="356.5" y="330.3" class="st1" width="25.7" height="25.7"/>
</g>
</svg>
