<?xml version="1.0" encoding="utf-8"?>
<!-- Generator: Adobe Illustrator 21.1.0, SVG Export Plug-In . SVG Version: 6.00 Build 0)  -->
<svg version="1.1" id="Слой_1" xmlns="http://www.w3.org/2000/svg" xmlns:xlink="http://www.w3.org/1999/xlink" x="0px" y="0px"
	 viewBox="0 0 479 473" style="enable-background:new 0 0 479 473;" xml:space="preserve">
<style type="text/css">
	.st0{fill:none;stroke:#000000;stroke-miterlimit:10;}
</style>
<circle class="st0" cx="239.6" cy="235.7" r="228"/>
<g id="Слой_x0020_1">
	<path class="st0" d="M92.2,142.4c24.6-14.4,49.2-28.8,73.7-43.3c24.7,14.1,49.4,28.3,74.2,42.4c0,76.4,0,152.8,0,229.1
		c-49.6-0.5-99.2-1.1-148.8-1.6C91.7,293.5,92,218,92.2,142.4L92.2,142.4z"/>
	<rect x="132.3" y="167.7" class="st0" width="17.6" height="17.6"/>
	<rect x="181.3" y="167.7" class="st0" width="17.6" height="17.6"/>
	<rect x="132.3" y="215.8" class="st0" width="17.6" height="17.6"/>
	<rect x="181.3" y="215.8" class="st0" width="17.6" height="17.6"/>
	<rect x="132.3" y="266.2" class="st0" width="17.6" height="17.6"/>
	<rect x="181.3" y="266.2" class="st0" width="17.6" height="17.6"/>
	<rect x="132.3" y="314.3" class="st0" width="17.6" height="17.6"/>
	<rect x="181.3" y="314.3" class="st0" width="17.6" height="17.6"/>
	<path class="st0" d="M240,143.8c24.6-14.4,49.2-28.8,73.7-43.3c24.7,14.1,49.4,28.3,74.2,42.4c0,76.4,0,152.8,0,229.1
		c-49.6-0.5-99.2-1.1-148.8-1.6C239.4,294.9,239.7,219.3,240,143.8L240,143.8z"/>
	<rect x="280.1" y="167.7" class="st0" width="17.6" height="17.6"/>
	<rect x="329" y="167.7" class="st0" width="17.6" height="17.6"/>
	<rect x="280.1" y="215.8" class="st0" width="17.6" height="17.6"/>
	<rect x="329" y="215.8" class="st0" width="17.6" height="17.6"/>
	<rect x="280.1" y="266.2" class="st0" width="17.6" height="17.6"/>
	<rect x="329" y="266.2" class="st0" width="17.6" height="17.6"/>
	<rect x="280.1" y="314.3" class="st0" width="17.6" height="17.6"/>
	<rect x="329" y="314.3" class="st0" width="17.6" height="17.6"/>
</g>
</svg>
