<?xml version="1.0" encoding="UTF-8"?>
<!DOCTYPE svg PUBLIC "-//W3C//DTD SVG 1.1//EN" "http://www.w3.org/Graphics/SVG/1.1/DTD/svg11.dtd">
<!-- Creator: CorelDRAW 2018 (64-Bit) -->
<svg xmlns="http://www.w3.org/2000/svg" xml:space="preserve" width="210mm" height="297mm" version="1.1" style="shape-rendering:geometricPrecision; text-rendering:geometricPrecision; image-rendering:optimizeQuality; fill-rule:evenodd; clip-rule:evenodd"
viewBox="0 0 21000 29700"
 xmlns:xlink="http://www.w3.org/1999/xlink">
 <defs>
  <style type="text/css">
   <![CDATA[
    .str0 {stroke:#2B2A29;stroke-width:500;stroke-miterlimit:22.9256}
    .fil0 {fill:none}
    .fil1 {fill:#2B2A29}
   ]]>
  </style>
 </defs>
 <g id="Слой_x0020_1">
  <metadata id="CorelCorpID_0Corel-Layer"/>
  <path class="fil0 str0" d="M3097.26 10622.88c1263.4,-741.1 2526.79,-1482.2 3790.19,-2223.3 1270.46,726.99 2540.91,1453.97 3811.36,2180.95 0,3924.3 0,7848.59 0,11772.89 -2547.96,-28.23 -5095.93,-56.47 -7643.9,-84.7 14.12,-3881.94 28.24,-7763.89 42.35,-11645.84z"/>
  <rect class="fil1" x="5159.3" y="11921.55" width="906.52" height="906.52"/>
  <rect class="fil1" x="7673.75" y="11921.55" width="906.52" height="906.52"/>
  <rect class="fil1" x="5159.3" y="14396.3" width="906.52" height="906.52"/>
  <rect class="fil1" x="7673.75" y="14396.3" width="906.52" height="906.52"/>
  <rect class="fil1" x="5159.3" y="16980.24" width="906.52" height="906.52"/>
  <rect class="fil1" x="7673.75" y="16980.24" width="906.52" height="906.52"/>
  <rect class="fil1" x="5159.3" y="19454.99" width="906.52" height="906.52"/>
  <rect class="fil1" x="7673.75" y="19454.99" width="906.52" height="906.52"/>
  <path class="fil0 str0" d="M10685.82 10622.88c1263.39,-741.1 2526.79,-1482.2 3790.19,-2223.3 1270.45,726.99 2540.91,1453.97 3811.36,2180.95 0,3924.3 0,7848.59 0,11772.89 -2547.97,-28.23 -5095.94,-56.47 -7643.9,-84.7 14.11,-3881.94 28.23,-7763.89 42.35,-11645.84z"/>
  <rect class="fil1" x="12747.86" y="11921.55" width="906.52" height="906.52"/>
  <rect class="fil1" x="15262.3" y="11921.55" width="906.52" height="906.52"/>
  <rect class="fil1" x="12747.86" y="14396.3" width="906.52" height="906.52"/>
  <rect class="fil1" x="15262.3" y="14396.3" width="906.52" height="906.52"/>
  <rect class="fil1" x="12747.86" y="16980.24" width="906.52" height="906.52"/>
  <rect class="fil1" x="15262.3" y="16980.24" width="906.52" height="906.52"/>
  <rect class="fil1" x="12747.86" y="19454.99" width="906.52" height="906.52"/>
  <rect class="fil1" x="15262.3" y="19454.99" width="906.52" height="906.52"/>
 </g>
</svg>
