<?xml version="1.0" encoding="utf-8"?>
<!-- Generator: Adobe Illustrator 21.1.0, SVG Export Plug-In . SVG Version: 6.00 Build 0)  -->
<svg version="1.1" id="Слой_1" xmlns="http://www.w3.org/2000/svg" xmlns:xlink="http://www.w3.org/1999/xlink" x="0px" y="0px"
	 viewBox="0 0 386.2 384" style="enable-background:new 0 0 386.2 384;" xml:space="preserve">
<style type="text/css">
	.st0{fill:none;stroke:#2B2A29;stroke-width:15;stroke-miterlimit:22.9256;}
	.st1{fill:#2B2A29;}
</style>
<g id="Слой_x0020_1">
	<g id="_1552456458384">
		<path class="st0" d="M0,0c128.7,0,257.5,0,386.2,0c0,58,0,116.1,0,174.1c-33.5,0-67,0-100.5,0c-28.8-28.8-57.7-57.7-86.5-86.5
			c-30.1,30.1-60.3,60.3-90.4,90.4c-36,0.1-72.1,0.1-108.1,0.2C0.5,118.8,0.2,59.4,0,0L0,0z"/>
		<path class="st0" d="M20.6,178.2c0,68.6,0,137.2,0,205.8c46.7,0,93.4,0,140.1,0c0-40,0-80,0-120c24,0,48,0,72,0
			c0,39.6,0,79.3,0,118.9c45.8,0,91.5,0,137.3,0c0-69.6,0-139.2,0-208.8"/>
		<rect x="75" y="249.4" class="st1" width="31.3" height="65.3"/>
		<rect x="284.8" y="249.4" class="st1" width="31.3" height="65.3"/>
	</g>
</g>
</svg>
