<?xml version="1.0" encoding="UTF-8"?>
<!DOCTYPE svg PUBLIC "-//W3C//DTD SVG 1.1//EN" "http://www.w3.org/Graphics/SVG/1.1/DTD/svg11.dtd">
<!-- Creator: CorelDRAW 2018 (64-Bit) -->
<svg xmlns="http://www.w3.org/2000/svg" xml:space="preserve" width="210mm" height="297mm" version="1.1" style="shape-rendering:geometricPrecision; text-rendering:geometricPrecision; image-rendering:optimizeQuality; fill-rule:evenodd; clip-rule:evenodd"
viewBox="0 0 21000 29700"
 xmlns:xlink="http://www.w3.org/1999/xlink">
 <defs>
  <style type="text/css">
   <![CDATA[
    .str0 {stroke:#2B2A29;stroke-width:500;stroke-miterlimit:22.9256}
    .fil0 {fill:none}
    .fil1 {fill:#2B2A29}
   ]]>
  </style>
 </defs>
 <g id="Слой_x0020_1">
  <metadata id="CorelCorpID_0Corel-Layer"/>
  <g id="_1552456458384">
   <path class="fil0 str0" d="M4628.73 5375.1c4541.53,0 9083.06,0 13624.59,0 0,2047.64 0,4095.26 0,6142.89 -1181.32,0 -2362.64,0 -3543.96,0 -1017.26,-1017.25 -2034.5,-2034.49 -3051.75,-3051.75 -1063.2,1063.19 -2126.38,2126.38 -3189.58,3189.57 -1271.56,2.47 -2543.13,4.94 -3814.68,7.41 -8.2,-2096.04 -16.42,-4192.09 -24.62,-6288.12z"/>
   <path class="fil0 str0" d="M5354.68 11661.85c0,2420.54 0,4841.09 0,7261.63 1647.32,0 3294.64,0 4941.96,0 0,-1411.02 0,-2822.06 0,-4233.09 846.62,0 1693.23,0 2539.85,0 0,1397.9 0,2795.81 0,4193.71 1614.47,0 3228.96,0 4843.43,0 0,-2455.36 0,-4910.74 0,-7366.11"/>
   <rect class="fil1" x="7274.44" y="14173.55" width="1102.56" height="2303.57"/>
   <rect class="fil1" x="14677.4" y="14173.55" width="1102.56" height="2303.57"/>
  </g>
 </g>
</svg>
