<?xml version="1.0" encoding="utf-8"?>
<!-- Generator: Adobe Illustrator 21.1.0, SVG Export Plug-In . SVG Version: 6.00 Build 0)  -->
<svg version="1.1" id="Слой_1" xmlns="http://www.w3.org/2000/svg" xmlns:xlink="http://www.w3.org/1999/xlink" x="0px" y="0px"
	 viewBox="0 0 479 473" style="enable-background:new 0 0 479 473;" xml:space="preserve">
<style type="text/css">
	.st0{fill:none;stroke:#000000;stroke-miterlimit:10;}
	.st1{fill:none;stroke:#000000;stroke-miterlimit:22.9256;}
</style>
<circle class="st0" cx="238.9" cy="236.1" r="228"/>
<g id="Слой_x0020_1_1_">
	<g id="_1552456458384">
		<path class="st1" d="M113.7,111.6c83.5,0,167,0,250.5,0c0,37.6,0,75.3,0,112.9c-21.7,0-43.5,0-65.2,0
			c-18.7-18.7-37.4-37.4-56.1-56.1c-19.5,19.5-39.1,39.1-58.6,58.6c-23.3,0.1-46.8,0.1-70.1,0.1C114,188.6,113.8,150.1,113.7,111.6
			L113.7,111.6z"/>
		<path class="st1" d="M127,227.1c0,44.5,0,89,0,133.5c30.3,0,60.6,0,90.9,0c0-25.9,0-51.9,0-77.8c15.6,0,31.1,0,46.7,0
			c0,25.7,0,51.4,0,77.1c29.7,0,59.3,0,89,0c0-45.1,0-90.3,0-135.4"/>
		<rect x="162.3" y="273.3" class="st0" width="20.3" height="42.3"/>
		<rect x="298.4" y="273.3" class="st0" width="20.3" height="42.3"/>
	</g>
</g>
</svg>
