<?xml version="1.0" encoding="utf-8"?>
<!-- Generator: Adobe Illustrator 21.1.0, SVG Export Plug-In . SVG Version: 6.00 Build 0)  -->
<svg version="1.1" id="Слой_1" xmlns="http://www.w3.org/2000/svg" xmlns:xlink="http://www.w3.org/1999/xlink" x="0px" y="0px"
	 viewBox="0 0 270 271.9" style="enable-background:new 0 0 270 271.9;" xml:space="preserve">
<g id="_2063541825888">
	<path d="M155.3,188.9l43.7-31.3l44.1,33.2c-9.4,17.6-9.4,8.7,0,26.3l-9.1,8.2c-2.1,2-10,10-11.1,10.8c-5.8,4.3-15.9,8.9-23.9,14.2
		c-8.1-5.3-18.2-9.9-23.9-14.2l-20.2-19C165.1,198,163.4,208.9,155.3,188.9L155.3,188.9z M51.6,228.5c63.3,0,89.7-8.7,103.7,10.9
		H40.7v-131H199c0,23.6,6.2,25.9-10.9,38.2v-27.3H51.6V228.5z M133.5,32.1H199v65.5h-65.5V32.1z M40.7,32.1h65.5v65.5H40.7V32.1z
		 M18.9,261.2c37.3,0,153.2-8.6,180.1,6.4c25.2-19.4,12.7-6.4,40.1-15.4l20-29.2c-6-24.7-6-13.5,0-38.2
		c-30.2-26.7-6.9-12.9-21.4-27.7c-16.9-17.2-17.5,14.5-16.9-37.6c0.4-36.4,0.2-72.9,0.2-109.3H18.9V261.2L18.9,261.2z"/>
	<polygon points="51.6,86.6 95.3,86.6 95.3,43 51.6,43 	"/>
	<polygon points="144.4,86.6 188.1,86.6 188.1,43 144.4,43 	"/>
</g>
</svg>
