<?xml version="1.0" encoding="utf-8"?>
<!-- Generator: Adobe Illustrator 21.1.0, SVG Export Plug-In . SVG Version: 6.00 Build 0)  -->
<svg version="1.1" id="Слой_1" xmlns="http://www.w3.org/2000/svg" xmlns:xlink="http://www.w3.org/1999/xlink" x="0px" y="0px"
	 viewBox="0 0 479 473" style="enable-background:new 0 0 479 473;" xml:space="preserve">
<style type="text/css">
	.st0{fill:none;stroke:#000000;stroke-miterlimit:10;}
	.st1{fill:none;stroke:#2B2A29;stroke-miterlimit:22.9256;}
</style>
<circle class="st0" cx="238.9" cy="236.1" r="228"/>
<g id="Слой_x0020_1">
	<path class="st1" d="M112.6,173.6c42.6-21.3,85.1-42.7,127.7-64c0,0,0,0,20.7,11.7c20.7,11.7,62.2,35.2,103.6,58.6"/>
	<path class="st1" d="M264,203.5c-5.7,3.2-11.4,6.5-15.6,9.7s-6.9,6.5-8.4,12c-1.5,5.5-1.8,13.3-1.8,26.6c0,13.3,0.3,32.1,0.7,50.8"
		/>
	<path class="st1" d="M238.5,281.2c21.1,0,42.2,0,63.4,0"/>
	<path class="st1" d="M238.2,246.7c21.1-0.1,42.2-0.2,63.3-0.3"/>
	<path class="st1" d="M323.3,205.5c-4.9,2.5-9.8,4.9-13.5,8c-3.7,3.1-6.1,6.8-7.3,10.5s-0.9,7.5-0.8,20.6s-0.1,35.4-0.2,57.7"/>
	<path class="st1" d="M114.2,328.1c3.6-0.3,7.1-0.7,11.6-1.8c4.4-1.2,9.7-3.2,13.2-5.3s5.5-4.4,6.4-5.5s0.9-1.1,2.1,0.2
		c1.2,1.3,3.5,3.9,6.7,6.1s7.2,4.1,12.2,5.1c5,1,11.1,1.1,16.9,0.1c5.9-1,11.6-3.1,15.8-5.8c4.2-2.6,7-5.8,8.4-7.3
		c1.4-1.6,1.4-1.6,3,0.3c1.6,1.8,4.9,5.5,9.3,8c4.5,2.5,10.2,3.7,15.8,4.1c5.6,0.4,11.2,0.1,16.4-1.6c5.2-1.7,10-4.7,13-6.9
		c3-2.2,4.1-3.7,4.6-4.4c0.6-0.7,0.6-0.7,2.5,1.1c2,1.8,5.9,5.4,10.4,7.9c4.6,2.6,9.8,4.1,14.9,4.6c5,0.5,9.8-0.1,14.6-1.5
		c4.7-1.5,9.4-3.8,12.7-6s5.2-4.4,7.1-6.5c2.3,2.5,4.7,4.9,7.8,7s6.9,3.9,11.2,4.9c4.4,1,9.3,1.2,14.2,1.5"/>
	<path class="st1" d="M114.2,362.5c3.6-0.3,7.1-0.7,11.6-1.8c4.4-1.2,9.7-3.2,13.2-5.3c3.6-2.1,5.5-4.4,6.4-5.5
		c0.9-1.1,0.9-1.1,2.1,0.2c1.2,1.3,3.5,3.9,6.7,6.1s7.2,4.1,12.2,5.1c5,1,11.1,1.1,16.9,0.1c5.9-1,11.6-3.1,15.8-5.8s7-5.8,8.4-7.3
		c1.4-1.6,1.4-1.6,3,0.3c1.6,1.8,4.9,5.5,9.3,8c4.5,2.5,10.2,3.7,15.8,4.1c5.6,0.4,11.2,0.1,16.4-1.6c5.2-1.7,10-4.7,13-6.9
		c3-2.2,4.1-3.7,4.6-4.4c0.6-0.7,0.6-0.7,2.5,1.1s5.9,5.4,10.4,7.9c4.6,2.6,9.8,4.1,14.9,4.6c5,0.5,9.8-0.1,14.6-1.5
		c4.7-1.5,9.4-3.8,12.7-6c3.3-2.2,5.2-4.4,7.1-6.5c2.3,2.5,4.7,4.9,7.8,7s6.9,3.9,11.2,4.9c4.4,1,9.3,1.2,14.2,1.5"/>
</g>
</svg>
