<?xml version="1.0" encoding="UTF-8"?>
<!DOCTYPE svg PUBLIC "-//W3C//DTD SVG 1.1//EN" "http://www.w3.org/Graphics/SVG/1.1/DTD/svg11.dtd">
<!-- Creator: CorelDRAW 2018 (64-Bit) -->
<svg xmlns="http://www.w3.org/2000/svg" xml:space="preserve" width="210mm" height="297mm" version="1.1" style="shape-rendering:geometricPrecision; text-rendering:geometricPrecision; image-rendering:optimizeQuality; fill-rule:evenodd; clip-rule:evenodd"
viewBox="0 0 21000 29700"
 xmlns:xlink="http://www.w3.org/1999/xlink">
 <defs>
  <style type="text/css">
   <![CDATA[
    .str0 {stroke:#2B2A29;stroke-width:500;stroke-miterlimit:22.9256}
    .str1 {stroke:#2B2A29;stroke-width:1000;stroke-miterlimit:22.9256}
    .fil0 {fill:none}
   ]]>
  </style>
 </defs>
 <g id="Слой_x0020_1">
  <metadata id="CorelCorpID_0Corel-Layer"/>
  <path class="fil0 str0" d="M3072.86 8281.75c2688.17,-1347.61 5376.34,-2695.23 8064.51,-4042.84 0,0 0,0 1308.8,740.84 1308.81,740.83 3926.43,2222.5 6544.04,3704.17"/>
  <path class="fil0 str1" d="M12640.2 10165.59c-359.83,204.61 -719.67,409.22 -984.25,613.83 -264.58,204.61 -433.92,409.23 -529.17,758.48 -95.25,349.25 -116.41,843.14 -116.41,1682.75 0,839.61 21.16,2024.95 42.33,3210.28"/>
  <path class="fil0 str1" d="M11029.38 15076.29c1334.22,-0.01 2668.44,-0.02 4002.66,-0.03"/>
  <path class="fil0 str1" d="M11011.68 12896.1c1333.06,-7.06 2666.13,-14.11 3999.19,-21.17"/>
  <path class="fil0 str1" d="M16386.71 10292.59c-310.45,155.22 -620.89,310.45 -853.73,504.48 -232.83,194.02 -388.05,426.86 -458.61,663.22 -70.55,236.36 -56.44,476.24 -52.92,1301.74 3.53,825.5 -3.52,2236.62 -10.58,3647.73"/>
  <path class="fil0 str0" d="M3178.69 18039.6c225.78,-21.17 451.56,-42.33 730.26,-116.42 278.69,-74.08 610.3,-201.08 836.08,-335.14 225.78,-134.05 345.72,-275.17 405.7,-345.73 59.97,-70.55 59.97,-70.55 134.06,10.59 74.08,81.14 222.24,243.42 423.33,384.53 201.08,141.11 455.08,261.06 772.58,324.56 317.5,63.5 698.5,70.55 1068.92,7.05 370.41,-63.5 730.25,-197.55 998.36,-363.36 268.11,-165.81 444.5,-363.36 532.7,-462.14 88.19,-98.78 88.19,-98.78 190.5,17.64 102.3,116.42 306.91,349.25 589.13,504.47 282.22,155.23 642.06,232.84 998.36,261.06 356.31,28.22 709.09,7.06 1037.17,-98.78 328.09,-105.83 631.47,-296.33 818.44,-437.44 186.98,-141.11 257.53,-232.84 292.81,-278.7 35.28,-45.86 35.28,-45.86 158.75,67.03 123.47,112.89 370.42,338.67 659.69,500.95 289.28,162.28 620.9,261.05 938.4,292.8 317.5,31.75 620.89,-3.52 920.75,-95.25 299.86,-91.72 596.2,-239.89 804.33,-381 208.14,-141.11 328.09,-275.17 448.03,-409.22 148.17,155.22 296.33,310.45 490.36,444.5 194.03,134.06 433.92,246.94 709.08,310.44 275.17,63.5 585.62,77.62 896.06,91.73"/>
  <path class="fil0 str0" d="M3178.69 20213.99c225.78,-21.17 451.56,-42.33 730.26,-116.42 278.69,-74.08 610.3,-201.08 836.08,-335.14 225.78,-134.05 345.72,-275.17 405.7,-345.73 59.97,-70.55 59.97,-70.55 134.06,10.59 74.08,81.14 222.24,243.42 423.33,384.53 201.08,141.11 455.08,261.06 772.58,324.56 317.5,63.5 698.5,70.55 1068.92,7.05 370.41,-63.5 730.25,-197.55 998.36,-363.36 268.11,-165.81 444.5,-363.36 532.7,-462.14 88.19,-98.78 88.19,-98.78 190.5,17.64 102.3,116.42 306.91,349.25 589.13,504.47 282.22,155.23 642.06,232.84 998.36,261.06 356.31,28.22 709.09,7.06 1037.17,-98.78 328.09,-105.83 631.47,-296.33 818.44,-437.44 186.98,-141.11 257.53,-232.84 292.81,-278.7 35.28,-45.86 35.28,-45.86 158.75,67.03 123.47,112.89 370.42,338.67 659.69,500.95 289.28,162.28 620.9,261.05 938.4,292.8 317.5,31.75 620.89,-3.52 920.75,-95.25 299.86,-91.72 596.2,-239.89 804.33,-381 208.14,-141.11 328.09,-275.17 448.03,-409.22 148.17,155.22 296.33,310.45 490.36,444.5 194.03,134.06 433.92,246.94 709.08,310.44 275.17,63.5 585.62,77.62 896.06,91.73"/>
 </g>
</svg>
