<?xml version="1.0" encoding="utf-8"?>
<!-- Generator: Adobe Illustrator 21.1.0, SVG Export Plug-In . SVG Version: 6.00 Build 0)  -->
<svg version="1.1" id="Слой_1" xmlns="http://www.w3.org/2000/svg" xmlns:xlink="http://www.w3.org/1999/xlink" x="0px" y="0px"
	 viewBox="0 0 452.4 449.6" style="enable-background:new 0 0 452.4 449.6;" xml:space="preserve">
<style type="text/css">
	.st0{fill:none;stroke:#2B2A29;stroke-width:5;stroke-miterlimit:22.9256;}
</style>
<g id="Слой_x0020_1">
	<path class="st0" d="M0,114.6C76.2,76.4,152.4,38.2,228.6,0c0,0,0,0,37.1,21C302.8,42,377,84,451.2,126"/>
	<path class="st0" d="M271.2,168c-10.2,5.8-20.4,11.6-27.9,17.4c-7.5,5.8-12.3,11.6-15,21.5c-2.7,9.9-3.3,23.9-3.3,47.7
		s0.6,57.4,1.2,91"/>
	<path class="st0" d="M225.5,307.2c37.8,0,75.6,0,113.5,0"/>
	<path class="st0" d="M225,245.4c37.8-0.2,75.6-0.4,113.4-0.6"/>
	<path class="st0" d="M377.4,171.6c-8.8,4.4-17.6,8.8-24.2,14.3c-6.6,5.5-11,12.1-13,18.8c-2,6.7-1.6,13.5-1.5,36.9
		c0.1,23.4-0.1,63.4-0.3,103.4"/>
	<path class="st0" d="M3,391.2c6.4-0.6,12.8-1.2,20.7-3.3c7.9-2.1,17.3-5.7,23.7-9.5c6.4-3.8,9.8-7.8,11.5-9.8c1.7-2,1.7-2,3.8,0.3
		c2.1,2.3,6.3,6.9,12,10.9c5.7,4,12.9,7.4,21.9,9.2s19.8,2,30.3,0.2c10.5-1.8,20.7-5.6,28.3-10.3c7.6-4.7,12.6-10.3,15.1-13.1
		c2.5-2.8,2.5-2.8,5.4,0.5c2.9,3.3,8.7,9.9,16.7,14.3c8,4.4,18.2,6.6,28.3,7.4c10.1,0.8,20.1,0.2,29.4-2.8c9.3-3,17.9-8.4,23.2-12.4
		c5.3-4,7.3-6.6,8.3-7.9c1-1.3,1-1.3,4.5,1.9c3.5,3.2,10.5,9.6,18.7,14.2c8.2,4.6,17.6,7.4,26.6,8.3s17.6-0.1,26.1-2.7
		c8.5-2.6,16.9-6.8,22.8-10.8c5.9-4,9.3-7.8,12.7-11.6c4.2,4.4,8.4,8.8,13.9,12.6c5.5,3.8,12.3,7,20.1,8.8
		c7.8,1.8,16.6,2.2,25.4,2.6"/>
	<path class="st0" d="M3,452.8c6.4-0.6,12.8-1.2,20.7-3.3c7.9-2.1,17.3-5.7,23.7-9.5c6.4-3.8,9.8-7.8,11.5-9.8c1.7-2,1.7-2,3.8,0.3
		c2.1,2.3,6.3,6.9,12,10.9c5.7,4,12.9,7.4,21.9,9.2c9,1.8,19.8,2,30.3,0.2c10.5-1.8,20.7-5.6,28.3-10.3c7.6-4.7,12.6-10.3,15.1-13.1
		c2.5-2.8,2.5-2.8,5.4,0.5c2.9,3.3,8.7,9.9,16.7,14.3c8,4.4,18.2,6.6,28.3,7.4c10.1,0.8,20.1,0.2,29.4-2.8c9.3-3,17.9-8.4,23.2-12.4
		c5.3-4,7.3-6.6,8.3-7.9c1-1.3,1-1.3,4.5,1.9c3.5,3.2,10.5,9.6,18.7,14.2c8.2,4.6,17.6,7.4,26.6,8.3s17.6-0.1,26.1-2.7
		c8.5-2.6,16.9-6.8,22.8-10.8c5.9-4,9.3-7.8,12.7-11.6c4.2,4.4,8.4,8.8,13.9,12.6c5.5,3.8,12.3,7,20.1,8.8
		c7.8,1.8,16.6,2.2,25.4,2.6"/>
</g>
</svg>
