<?xml version="1.0" encoding="utf-8"?>
<!-- Generator: Adobe Illustrator 21.1.0, SVG Export Plug-In . SVG Version: 6.00 Build 0)  -->
<svg version="1.1" id="Слой_1" xmlns="http://www.w3.org/2000/svg" xmlns:xlink="http://www.w3.org/1999/xlink" x="0px" y="0px"
	 viewBox="0 0 270 271.9" style="enable-background:new 0 0 270 271.9;" xml:space="preserve">
<g id="_2063541830720">
	<path d="M54.8,178.3L12.2,172L12,194.3c23.1-0.5,21.9-4.8,47.9-5.5c19.1-0.6,39.7,0.2,58.9,0.2v16h32v-16l106.8,5.3V173l-42.6,6.3
		c-13.3-25.8-30.6-56.5-37.5-86.4c-11.5,7.7-15.7,12.2-32,16c5.5,23.4,20.8,44,26.7,69.4H151v-16h-32v16H97.6
		c5.9-25.4,21.2-46,26.7-69.4c-16.3-3.8-20.5-8.3-32-16C85.3,122.8,68,153.4,54.8,178.3L54.8,178.3z"/>
	<path d="M117.8,67.3l16-18.3l18.3,16l-16,18.3L117.8,67.3z M97.6,66.2c0,51.3,74.8,51.3,74.8,0C172.3,14.9,97.6,14.9,97.6,66.2z"/>
	<path d="M241.7,269.1c-3.6-15.6-3-18.5-6-36.7c-3-18.1-5.9-15.2-10-32.7h-37.4c3.5,15.2,8.1,31.4,16.5,42.2c0.7,0.9,1.8,2,2.5,2.8
		c13.2,15.3-8.8-9.1,5.4,5.3c0.4,0.4,7.7,7.7,8,8C236,271.9,214,266.1,241.7,269.1L241.7,269.1z"/>
	<path d="M28.1,269.1c14.2-1.6,9.2,4.5,34.3-24.4c9.6-11.1,17.6-27.8,19.1-45H44.2L28.1,269.1z"/>
	<path d="M118.9,23.5c6.5-3.7,5.7-5.3,16-5.3c20.4,0,1.9-1.6,16,5.3V2.1h-32C118.9,2.1,118.9,23.5,118.9,23.5z"/>
</g>
</svg>
