<?xml version="1.0" encoding="utf-8"?>
<!-- Generator: Adobe Illustrator 21.1.0, SVG Export Plug-In . SVG Version: 6.00 Build 0)  -->
<svg version="1.1" id="Слой_1" xmlns="http://www.w3.org/2000/svg" xmlns:xlink="http://www.w3.org/1999/xlink" x="0px" y="0px"
	 viewBox="0 0 220.5 336.5" style="enable-background:new 0 0 220.5 336.5;" xml:space="preserve">
<style type="text/css">
	.st0{fill:none;stroke:#2B2A29;stroke-width:5;stroke-miterlimit:22.9256;}
</style>
<g id="Слой_x0020_1">
	<path class="st0" d="M212.3,262.3c0.3-52.9,0.3-153.1-0.4-204c-0.7-51-2.2-52.8-5.2-54.8c-3-2-7.5-4.2-12.7-3.3
		c-5.2,0.9-11.2,4.9-17.1,10.9c-5.8,6-11.5,14.1-15.7,23.4c-4.2,9.3-6.9,19.8-8.8,30.4c-1.9,10.6-3.1,21.4-2.8,31.9
		c0.3,10.5,2.1,20.7,5.1,31.3c3,10.6,7.2,21.7,11.7,29.8c4.5,8.1,9.3,13.2,11.5,17.7c2.2,4.5,1.9,8.4,0.3,18
		c-1.6,9.6-4.6,24.9-7.5,40.3c-2.8,15.4-5.5,31-6.9,45c-1.3,13.9-1.3,26.2,0.2,34.9c1.5,8.7,4.5,13.8,9.9,17.4
		c5.4,3.6,13.2,5.8,19.8,4.8c6.6-1,12-5.3,15-10.3C211.4,320.9,212,315.2,212.3,262.3L212.3,262.3z"/>
	<path class="st0" d="M80.9,289.4c0.2-30.1-0.4-85.8-0.3-114.9c0.1-29.2,0.8-31.9,3.4-35.3c2.5-3.4,6.9-7.6,10.8-13.3
		c3.9-5.6,7.2-12.7,8.1-24.3c0.8-11.6-0.9-27.7-2.6-41.4c-1.8-13.6-3.6-24.8-5.1-34C93.6,17,92.4,9.7,91.2,2.4c-24,0-48,0-72,0
		c-1.8,7.9-3.6,15.9-5.3,27.1C12.1,40.6,10.5,55,9.1,68.2c-1.4,13.3-2.6,25.4-1.2,35.6c1.4,10.2,5.5,18.4,9.7,24.7
		c4.3,6.3,8.8,10.6,11.6,15.5c2.8,4.9,4,10.3,3.7,38.4c-0.3,28.1-2.1,78.9-2.7,106.5c-0.6,27.6,0,31.9,2.5,35.5
		c2.5,3.5,6.8,6.2,11.5,7.6c4.7,1.4,9.8,1.6,15.6,0.8c5.8-0.7,12.2-2.4,16-5.5C79.6,324.2,80.7,319.6,80.9,289.4L80.9,289.4z"/>
	<path class="st0" d="M41.7,2.4c0,32.1,0,64.2,0,96.2"/>
	<path class="st0" d="M68.7,2.4c0,31.8,0,63.6,0,95.3"/>
</g>
</svg>
