<?xml version="1.0" encoding="UTF-8"?>
<!DOCTYPE svg PUBLIC "-//W3C//DTD SVG 1.1//EN" "http://www.w3.org/Graphics/SVG/1.1/DTD/svg11.dtd">
<!-- Creator: CorelDRAW 2018 (64-Bit) -->
<svg xmlns="http://www.w3.org/2000/svg" xml:space="preserve" width="210mm" height="297mm" version="1.1" style="shape-rendering:geometricPrecision; text-rendering:geometricPrecision; image-rendering:optimizeQuality; fill-rule:evenodd; clip-rule:evenodd"
viewBox="0 0 21000 29700"
 xmlns:xlink="http://www.w3.org/1999/xlink">
 <defs>
  <style type="text/css">
   <![CDATA[
    .str0 {stroke:#2B2A29;stroke-width:500;stroke-miterlimit:22.9256}
    .fil0 {fill:none}
   ]]>
  </style>
 </defs>
 <g id="Слой_x0020_1">
  <metadata id="CorelCorpID_0Corel-Layer"/>
  <path class="fil0 str0" d="M13401.24 17900.99c10.59,-1866.88 10.59,-5399.64 -15.86,-7197.75 -26.44,-1798.13 -79.3,-1861.57 -185.08,-1932.09 -105.77,-70.52 -264.41,-148.06 -449.52,-116.33 -185.11,31.72 -396.64,172.75 -602.92,386.05 -206.25,213.29 -407.19,498.88 -555.27,826.76 -148.09,327.89 -243.28,698.11 -312.03,1073.61 -68.75,375.47 -111.08,756.25 -100.5,1126.44 10.58,370.19 74.03,729.83 179.8,1105.33 105.78,375.47 253.87,766.83 412.5,1052.41 158.67,285.58 327.92,465.42 407.22,624.09 79.34,158.63 68.78,296.13 10.59,634.6 -58.17,338.47 -163.92,877.89 -264.42,1422.61 -100.47,544.72 -195.66,1094.74 -243.28,1586.57 -47.58,491.84 -47.58,925.5 5.31,1232.25 52.89,306.72 158.64,486.56 349.03,615.24 190.38,128.68 465.41,206.22 698.11,169.22 232.69,-37.03 423.08,-188.65 528.83,-364.92 105.77,-176.29 126.94,-377.23 137.49,-2244.09z"/>
  <path class="fil0 str0" d="M8765.85 18858.24c7.91,-1063.02 -13.22,-3025.07 -10.59,-4053.71 2.64,-1028.63 29.09,-1123.83 119,-1245.47 89.89,-121.63 243.28,-269.69 379.46,-467.99 136.18,-198.33 255.18,-446.89 284.74,-855.67 29.57,-408.78 -30.28,-977.78 -92.43,-1459.03 -62.15,-481.28 -126.59,-874.83 -179.96,-1201.16 -53.36,-326.32 -95.67,-585.49 -137.97,-844.63 -846.17,0 -1692.36,0 -2538.52,0 -63.48,280.31 -126.92,560.58 -187.72,954.61 -60.84,394 -119.03,901.69 -169.25,1369.75 -50.25,468.02 -92.56,896.41 -42.31,1256.05 50.22,359.61 193.03,650.47 343.75,872.6 150.72,222.11 309.36,375.5 409.86,547.39 100.47,171.86 142.81,362.25 132.22,1353.86 -10.58,991.61 -74.03,2784.43 -95.19,3757.54 -21.17,973.08 0,1126.47 87.25,1250.74 87.24,124.28 240.63,219.48 407.22,269.73 166.58,50.22 346.41,55.52 550.02,29.08 203.61,-26.45 431,-84.64 563.22,-195.7 132.23,-111.05 169.25,-274.99 177.2,-1337.99z"/>
  <path class="fil0 str0" d="M7382.85 8730.58c0,1131.78 0,2263.52 0,3395.3"/>
  <path class="fil0 str0" d="M8334.82 8730.58c0,1121.19 0,2242.35 0,3363.54"/>
 </g>
</svg>
