<?xml version="1.0" encoding="utf-8"?>
<!-- Generator: Adobe Illustrator 21.1.0, SVG Export Plug-In . SVG Version: 6.00 Build 0)  -->
<svg version="1.1" id="Слой_1" xmlns="http://www.w3.org/2000/svg" xmlns:xlink="http://www.w3.org/1999/xlink" x="0px" y="0px"
	 viewBox="0 0 479 473" style="enable-background:new 0 0 479 473;" xml:space="preserve">
<style type="text/css">
	.st0{fill:none;stroke:#000000;stroke-miterlimit:10;}
	.st1{fill:none;stroke:#2B2A29;stroke-miterlimit:22.9256;}
</style>
<circle class="st0" cx="238.6" cy="237.2" r="228"/>
<g id="Слой_x0020_1_1_">
	<path class="st1" d="M310.3,303.2c0.2-37.1,0.2-107.3-0.3-142.9c-0.5-35.7-1.5-37-3.6-38.4s-5.3-2.9-8.9-2.3s-7.8,3.4-12,7.6
		c-4.1,4.2-8.1,9.9-11,16.4s-4.8,13.9-6.2,21.3s-2.2,15-2,22.4s1.5,14.5,3.6,21.9c2.1,7.4,5,15.2,8.2,20.9c3.2,5.7,6.5,9.2,8.1,12.4
		s1.3,5.9,0.2,12.6c-1.1,6.7-3.2,17.4-5.3,28.2c-2,10.8-3.9,21.7-4.8,31.5c-0.9,9.7-0.9,18.4,0.1,24.5s3.2,9.7,6.9,12.2
		s9.2,4.1,13.9,3.4s8.4-3.7,10.5-7.2C309.7,344.3,310.1,340.3,310.3,303.2L310.3,303.2z"/>
	<path class="st1" d="M218.3,322.2c0.1-21.1-0.3-60.1-0.2-80.5c0.1-20.5,0.6-22.4,2.4-24.7c1.8-2.4,4.8-5.3,7.6-9.3
		c2.7-3.9,5-8.9,5.7-17c0.6-8.1-0.6-19.4-1.8-29c-1.3-9.5-2.5-17.4-3.6-23.8c-1.1-6.4-2-11.6-2.8-16.7c-16.8,0-33.6,0-50.4,0
		c-1.3,5.5-2.5,11.1-3.7,19c-1.3,7.8-2.4,17.9-3.4,27.1c-1,9.3-1.8,17.8-0.8,24.9s3.9,12.9,6.8,17.3c3,4.4,6.2,7.4,8.1,10.9
		c2,3.4,2.8,7.2,2.6,26.9s-1.5,55.3-1.9,74.6s0,22.4,1.8,24.9c1.8,2.5,4.8,4.3,8.1,5.3s6.9,1.1,10.9,0.6c4.1-0.5,8.5-1.7,11.2-3.9
		S218.1,343.4,218.3,322.2L218.3,322.2z"/>
	<path class="st1" d="M190.8,121.1c0,22.5,0,45,0,67.4"/>
	<path class="st1" d="M209.7,121.1c0,22.3,0,44.6,0,66.8"/>
</g>
</svg>
