<?xml version="1.0" encoding="utf-8"?>
<!-- Generator: Adobe Illustrator 21.1.0, SVG Export Plug-In . SVG Version: 6.00 Build 0)  -->
<svg version="1.1" id="Слой_1" xmlns="http://www.w3.org/2000/svg" xmlns:xlink="http://www.w3.org/1999/xlink" x="0px" y="0px"
	 viewBox="0 0 479 473" style="enable-background:new 0 0 479 473;" xml:space="preserve">
<style type="text/css">
	.st0{fill:none;stroke:#2B2A29;stroke-miterlimit:22.9256;}
	.st1{fill:none;stroke:#000000;stroke-miterlimit:10;}
</style>
<g id="Слой_x0020_1">
	<g id="_1552453666224">
		<polyline class="st0" points="90.4,213 240.8,92.3 309.3,150 309.3,126.6 338.9,126.6 339.7,168.7 388.8,209.9 		"/>
		<polyline class="st0" points="370.6,194.7 370,379 109.1,378.1 110.1,197.3 		"/>
		<path class="st0" d="M137.3,222c2,1.6,3.9,3.1,5.6,5.3c1.8,2.2,3.3,5.1,3.7,7.8c0.4,2.8-0.4,5.5-1.6,7.8c-1.2,2.4-2.9,4.3-4.7,7
			c-1.8,2.6-3.6,6-4.6,9.3s-1.3,6.4-0.5,9.1c0.8,2.7,2.8,5.1,4.9,7.4c2.2,2.4,4.5,4.7,6.8,7"/>
		<path class="st0" d="M311.3,222c2,1.6,3.9,3.1,5.6,5.3c1.8,2.2,3.3,5.1,3.7,7.8c0.4,2.8-0.4,5.5-1.6,7.8c-1.2,2.4-2.9,4.3-4.7,7
			c-1.8,2.6-3.6,6-4.6,9.3s-1.3,6.4-0.5,9.1c0.8,2.7,2.8,5.1,4.9,7.4c2.2,2.4,4.5,4.7,6.8,7"/>
		<path class="st0" d="M162.4,221.5c2,1.6,3.9,3.1,5.6,5.3c1.8,2.2,3.3,5.1,3.7,7.8c0.4,2.8-0.4,5.5-1.6,7.8c-1.2,2.4-2.9,4.3-4.7,7
			c-1.8,2.6-3.6,6-4.6,9.3c-1,3.2-1.3,6.4-0.5,9.1c0.8,2.7,2.8,5.1,4.9,7.4c2.2,2.4,4.5,4.7,6.8,7"/>
		<path class="st0" d="M336.3,222c2,1.6,3.9,3.1,5.6,5.3c1.8,2.2,3.3,5.1,3.7,7.8c0.4,2.8-0.4,5.5-1.6,7.8c-1.2,2.4-2.9,4.3-4.7,7
			c-1.8,2.6-3.6,6-4.6,9.3s-1.3,6.4-0.5,9.1c0.8,2.7,2.8,5.1,4.9,7.4c2.2,2.4,4.5,4.7,6.8,7"/>
		<circle class="st0" cx="241.2" cy="216.6" r="23.3"/>
		<path class="st0" d="M242.4,247.5c-6-0.3-10.4-0.4-14.5-0.1c-4,0.3-7.6,0.9-11,3.2s-6.5,6.4-9.1,10.6c-2.6,4.3-4.7,8.8-6.8,13.6
			c-2.1,4.7-4.1,9.7-5.3,14.3c-1.1,4.7-1.2,9.1,0.1,12.2c1.4,3.2,4.2,5.1,8,5.9c3.8,0.8,8.5,0.4,16,0.3c7.5-0.1,17.9,0,26.4,0.1
			c8.5,0.1,15.2,0.3,20.8,0.1c5.7-0.1,10.5-0.5,13.6-2.4c3-1.9,4.3-5.3,4.1-10.1c-0.2-4.8-1.9-11-4-17s-4.5-11.9-7.4-16.8
			c-2.9-4.9-6.3-8.9-11.8-11.2C256.2,248.1,248.5,247.7,242.4,247.5L242.4,247.5z"/>
		<path class="st0" d="M246.4,307.7c3.2-1.8,6.4-3.7,7.5-6.4c1-2.7-0.1-6.4-2.8-8.9s-6.9-4.1-12.5-4.7c-5.6-0.7-12.5-0.4-19.5-0.2"
			/>
		<path class="st0" d="M210,307.8c-3.2,2.6-6.5,5.1-8.7,7.6s-3.2,5-3.7,9.2c-0.5,4.2-0.5,10.2,0.1,15.9c0.6,5.7,1.8,11.2,2.6,16.6
			c0.8,5.5,1.4,10.9,2.4,14.5c1.1,3.5,2.8,5.2,5.8,6s7.4,0.8,11-0.1c3.6-0.9,6.3-2.8,7.2-6.6c0.9-3.7,0.2-9.1-0.8-13.9
			c-0.9-4.7-2.2-8.8-2.6-12.5c-0.5-3.8-0.2-7.2,1.6-10.3c1.8-3,5.2-5.5,8.1-7.2c2.9-1.8,5.4-3,8.9-2.4c3.5,0.5,8,2.7,10.8,5.8
			c2.8,3.1,3.9,7.2,3.8,11.9c-0.1,4.7-1.2,10.2-2,15.2c-0.8,5.1-1.1,9.7-0.9,13.2c0.3,3.4,1.1,5.7,4.6,6.8c3.4,1.1,9.4,1.1,13.9-0.6
			c4.5-1.8,7.6-5.3,9.5-10.1c1.9-4.9,2.5-11.1,3.2-17.9c0.7-6.8,1.3-14.2-0.5-20.4c-1.8-6.2-6.1-11.1-9.4-14.3
			c-3.3-3.2-5.7-4.7-8.1-6.2"/>
		<path class="st0" d="M242.2,324.6c0.1-3.3,0.1-6.6,0-9.4c-0.1-2.8-0.3-5.2-0.6-7.6"/>
		<path class="st0" d="M109.4,322.5c29.6,0,59.1,0,73.9,0c14.8,0,14.8-0.1,14.8-0.1"/>
		<path class="st0" d="M282.9,323.9c29.1,0,58.2,0,87.3,0"/>
	</g>
</g>
<circle class="st1" cx="239.6" cy="235.7" r="228"/>
</svg>
