<?xml version="1.0" encoding="UTF-8"?>
<!DOCTYPE svg PUBLIC "-//W3C//DTD SVG 1.1//EN" "http://www.w3.org/Graphics/SVG/1.1/DTD/svg11.dtd">
<!-- Creator: CorelDRAW 2018 (64-Bit) -->
<svg xmlns="http://www.w3.org/2000/svg" xml:space="preserve" width="210mm" height="297mm" version="1.1" style="shape-rendering:geometricPrecision; text-rendering:geometricPrecision; image-rendering:optimizeQuality; fill-rule:evenodd; clip-rule:evenodd"
viewBox="0 0 21000 29700"
 xmlns:xlink="http://www.w3.org/1999/xlink">
 <defs>
  <style type="text/css">
   <![CDATA[
    .str0 {stroke:#2B2A29;stroke-width:500;stroke-miterlimit:22.9256}
    .fil0 {fill:none}
   ]]>
  </style>
 </defs>
 <g id="Слой_x0020_1">
  <metadata id="CorelCorpID_0Corel-Layer"/>
  <g id="_1552453666224">
   <polyline class="fil0 str0" points="3132.31,11294.29 10971.78,4998.34 14546.25,8004.15 14546.25,6785.57 16089.78,6785.57 16130.39,8979 18689.4,11131.82 "/>
   <polyline class="fil0 str0" points="17742.13,10334.92 17714.54,19946.13 4107.17,19905.52 4155.98,10472.19 "/>
   <path class="fil0 str0" d="M5573.39 11762.73c101.56,81.24 203.1,162.47 294.5,277.57 91.38,115.08 172.63,264.01 192.94,409.56 20.3,145.55 -20.31,287.73 -84.62,409.58 -64.32,121.85 -152.33,223.41 -243.72,362.19 -91.4,138.78 -186.17,314.8 -240.33,484.05 -54.16,169.24 -67.7,331.72 -23.7,473.88 44.01,142.17 145.55,264.03 257.26,385.88 111.7,121.86 233.56,243.72 355.42,365.57"/>
   <path class="fil0 str0" d="M14651.3 11762.73c101.55,81.24 203.09,162.47 294.49,277.57 91.39,115.08 172.63,264.01 192.94,409.56 20.3,145.55 -20.31,287.73 -84.61,409.58 -64.32,121.85 -152.33,223.41 -243.72,362.19 -91.4,138.78 -186.17,314.8 -240.33,484.05 -54.17,169.24 -67.71,331.72 -23.7,473.88 44.01,142.17 145.55,264.03 257.26,385.88 111.7,121.86 233.56,243.72 355.41,365.57"/>
   <path class="fil0 str0" d="M6883.22 11737.71c101.55,81.24 203.09,162.47 294.49,277.57 91.39,115.08 172.63,264.01 192.94,409.56 20.3,145.55 -20.31,287.73 -84.61,409.58 -64.32,121.85 -152.33,223.41 -243.72,362.19 -91.4,138.78 -186.17,314.8 -240.33,484.05 -54.17,169.24 -67.71,331.72 -23.7,473.88 44.01,142.17 145.55,264.03 257.26,385.88 111.7,121.86 233.56,243.72 355.41,365.57"/>
   <path class="fil0 str0" d="M15954.94 11762.73c101.55,81.24 203.1,162.47 294.5,277.57 91.38,115.08 172.63,264.01 192.94,409.56 20.3,145.55 -20.31,287.73 -84.62,409.58 -64.32,121.85 -152.33,223.41 -243.72,362.19 -91.4,138.78 -186.17,314.8 -240.33,484.05 -54.16,169.24 -67.7,331.72 -23.7,473.88 44.01,142.17 145.55,264.03 257.26,385.88 111.7,121.86 233.56,243.72 355.42,365.57"/>
   <circle class="fil0 str0" cx="10996.04" cy="11478.39" r="1218.57"/>
   <path class="fil0 str0" d="M11060.36 13089.62c-314.8,-13.54 -544.98,-20.31 -754.84,-6.77 -209.87,13.54 -399.43,47.39 -575.44,169.25 -176.02,121.86 -338.49,331.71 -473.89,555.12 -135.39,223.41 -243.71,460.34 -352.03,707.45 -108.32,247.1 -216.63,504.35 -274.18,748.06 -57.55,243.72 -64.32,473.9 6.77,639.76 71.08,165.86 220.02,267.41 416.35,308.03 196.32,40.61 440.03,20.3 832.68,13.53 392.65,-6.77 934.25,0 1377.68,6.77 443.42,6.77 788.68,13.54 1086.55,6.77 297.88,-6.77 548.35,-27.08 707.44,-125.23 159.1,-98.17 226.8,-274.19 216.64,-524.67 -10.16,-250.48 -98.16,-575.44 -206.48,-890.24 -108.31,-314.79 -236.95,-619.44 -389.27,-876.69 -152.32,-257.26 -328.33,-467.11 -616.06,-582.2 -287.71,-115.09 -687.12,-135.4 -1001.92,-148.94z"/>
   <path class="fil0 str0" d="M11263.46 16230.82c168.12,-94.77 336.22,-189.55 389.82,-331.72 53.59,-142.16 -7.33,-331.72 -147.86,-466.04 -140.53,-134.33 -360.65,-213.43 -651.74,-247.29 -291.11,-33.85 -653.2,-22.44 -1015.28,-11.04"/>
   <path class="fil0 str0" d="M9371.29 16235.14c-169.23,133.97 -338.48,267.94 -450.18,399.24 -111.7,131.29 -165.86,259.93 -192.94,479.95 -27.08,220.01 -27.08,531.43 3.39,829.3 30.46,297.88 91.4,582.21 135.4,866.54 44.01,284.33 71.08,568.67 128.58,753.77 57.5,185.1 145.41,270.99 304.51,314.27 159.09,43.28 389.37,43.96 575.59,-5.75 186.22,-49.7 328.37,-149.81 379.14,-342.02 50.77,-192.22 10.15,-476.56 -40.63,-723.66 -50.78,-247.09 -111.7,-456.96 -135.39,-653.28 -23.7,-196.33 -10.16,-379.12 84.63,-534.82 94.77,-155.7 270.78,-284.34 423.1,-379.11 152.32,-94.78 280.96,-155.71 463.74,-128.62 182.79,27.07 419.72,142.16 565.28,304.63 145.55,162.48 199.72,372.35 196.33,619.44 -3.38,247.1 -64.31,531.44 -104.93,795.46 -40.62,264.02 -60.93,507.74 -47.42,687.34 13.49,179.6 60.79,295.08 240.2,353.28 179.41,58.21 490.92,59.13 727.9,-32.47 236.99,-91.58 399.45,-275.68 497.61,-530.21 98.16,-254.53 132,-579.49 165.85,-934.9 33.85,-355.42 67.69,-741.3 -27.09,-1062.86 -94.77,-321.58 -318.17,-578.83 -491.94,-746.95 -173.76,-168.13 -297.89,-247.12 -422.01,-326.12"/>
   <path class="fil0 str0" d="M11050.23 17110.95c2.26,-171.51 4.52,-343.01 -1.16,-490.28 -5.69,-147.29 -19.3,-270.35 -32.92,-393.42"/>
   <path class="fil0 str0" d="M4122.2 17002.79c1541.7,0 3083.41,0 3854.27,-1.23 770.85,-1.23 770.85,-3.71 770.85,-6.17"/>
   <path class="fil0 str0" d="M13167.52 17074.15c1518.42,0 3036.86,0 4555.29,0"/>
  </g>
 </g>
</svg>
