<?xml version="1.0" encoding="utf-8"?>
<!-- Generator: Adobe Illustrator 21.1.0, SVG Export Plug-In . SVG Version: 6.00 Build 0)  -->
<svg version="1.1" id="Слой_1" xmlns="http://www.w3.org/2000/svg" xmlns:xlink="http://www.w3.org/1999/xlink" x="0px" y="0px"
	 viewBox="0 0 456 442.5" style="enable-background:new 0 0 456 442.5;" xml:space="preserve">
<style type="text/css">
	.st0{fill:none;stroke:#2B2A29;stroke-width:15;stroke-miterlimit:22.9256;}
</style>
<g id="Слой_x0020_1">
	<g id="_1552453666224">
		<polyline class="st0" points="6.7,188 228.9,9.6 330.2,94.8 330.2,60.2 374,60.2 375.1,122.4 447.7,183.4 		"/>
		<polyline class="st0" points="420.8,160.9 420,433.3 34.3,432.1 35.7,164.7 		"/>
		<path class="st0" d="M75.9,201.3c2.9,2.3,5.8,4.6,8.3,7.9c2.6,3.3,4.9,7.5,5.5,11.6c0.6,4.1-0.6,8.2-2.4,11.6
			c-1.8,3.5-4.3,6.3-6.9,10.3c-2.6,3.9-5.3,8.9-6.8,13.7c-1.5,4.8-1.9,9.4-0.7,13.4c1.2,4,4.1,7.5,7.3,10.9
			c3.2,3.5,6.6,6.9,10.1,10.4"/>
		<path class="st0" d="M333.2,201.3c2.9,2.3,5.8,4.6,8.3,7.9c2.6,3.3,4.9,7.5,5.5,11.6c0.6,4.1-0.6,8.2-2.4,11.6
			c-1.8,3.5-4.3,6.3-6.9,10.3c-2.6,3.9-5.3,8.9-6.8,13.7c-1.5,4.8-1.9,9.4-0.7,13.4c1.2,4,4.1,7.5,7.3,10.9
			c3.2,3.5,6.6,6.9,10.1,10.4"/>
		<path class="st0" d="M113,200.6c2.9,2.3,5.8,4.6,8.3,7.9c2.6,3.3,4.9,7.5,5.5,11.6c0.6,4.1-0.6,8.2-2.4,11.6
			c-1.8,3.5-4.3,6.3-6.9,10.3c-2.6,3.9-5.3,8.9-6.8,13.7c-1.5,4.8-1.9,9.4-0.7,13.4c1.2,4,4.1,7.5,7.3,10.9
			c3.2,3.5,6.6,6.9,10.1,10.4"/>
		<path class="st0" d="M370.2,201.3c2.9,2.3,5.8,4.6,8.3,7.9c2.6,3.3,4.9,7.5,5.5,11.6c0.6,4.1-0.6,8.2-2.4,11.6
			c-1.8,3.5-4.3,6.3-6.9,10.3c-2.6,3.9-5.3,8.9-6.8,13.7c-1.5,4.8-1.9,9.4-0.7,13.4c1.2,4,4.1,7.5,7.3,10.9
			c3.2,3.5,6.6,6.9,10.1,10.4"/>
		<circle class="st0" cx="229.6" cy="193.3" r="34.5"/>
		<path class="st0" d="M231.4,238.9c-8.9-0.4-15.4-0.6-21.4-0.2c-5.9,0.4-11.3,1.3-16.3,4.8c-5,3.5-9.6,9.4-13.4,15.7
			c-3.8,6.3-6.9,13-10,20.1c-3.1,7-6.1,14.3-7.8,21.2c-1.6,6.9-1.8,13.4,0.2,18.1c2,4.7,6.2,7.6,11.8,8.7c5.6,1.2,12.5,0.6,23.6,0.4
			c11.1-0.2,26.5,0,39.1,0.2c12.6,0.2,22.4,0.4,30.8,0.2c8.4-0.2,15.5-0.8,20.1-3.5c4.5-2.8,6.4-7.8,6.1-14.9
			c-0.3-7.1-2.8-16.3-5.9-25.2c-3.1-8.9-6.7-17.6-11-24.9c-4.3-7.3-9.3-13.2-17.5-16.5C251.7,239.9,240.3,239.3,231.4,238.9
			L231.4,238.9z"/>
		<path class="st0" d="M237.2,328c4.8-2.7,9.5-5.4,11.1-9.4c1.5-4-0.2-9.4-4.2-13.2c-4-3.8-10.2-6-18.5-7c-8.3-1-18.5-0.6-28.8-0.3"
			/>
		<path class="st0" d="M183.5,328.1c-4.8,3.8-9.6,7.6-12.8,11.3c-3.2,3.7-4.7,7.4-5.5,13.6c-0.8,6.2-0.8,15.1,0.1,23.5
			c0.9,8.4,2.6,16.5,3.8,24.6c1.2,8.1,2,16.1,3.6,21.4c1.6,5.2,4.1,7.7,8.6,8.9c4.5,1.2,11,1.2,16.3-0.2c5.3-1.4,9.3-4.2,10.7-9.7
			c1.4-5.4,0.3-13.5-1.2-20.5c-1.4-7-3.2-13-3.8-18.5c-0.7-5.6-0.3-10.7,2.4-15.2c2.7-4.4,7.7-8.1,12-10.7c4.3-2.7,8-4.4,13.1-3.6
			c5.2,0.8,11.9,4,16,8.6c4.1,4.6,5.7,10.6,5.6,17.6c-0.1,7-1.8,15.1-3,22.5c-1.2,7.5-1.7,14.4-1.3,19.5c0.4,5.1,1.7,8.4,6.8,10
			c5.1,1.7,13.9,1.7,20.6-0.9c6.7-2.6,11.3-7.8,14.1-15c2.8-7.2,3.7-16.4,4.7-26.5c1-10.1,1.9-21-0.8-30.1
			c-2.7-9.1-9-16.4-13.9-21.2c-4.9-4.8-8.4-7-12-9.2"/>
		<path class="st0" d="M231.1,352.9c0.1-4.9,0.1-9.7,0-13.9c-0.2-4.2-0.5-7.7-0.9-11.2"/>
		<path class="st0" d="M34.7,349.9c43.7,0,87.4,0,109.3,0c21.9,0,21.9-0.1,21.9-0.2"/>
		<path class="st0" d="M291.2,351.9c43,0,86.1,0,129.1,0"/>
	</g>
</g>
</svg>
