<?xml version="1.0" encoding="utf-8"?>
<!-- Generator: Adobe Illustrator 21.1.0, SVG Export Plug-In . SVG Version: 6.00 Build 0)  -->
<svg version="1.1" id="Слой_1" xmlns="http://www.w3.org/2000/svg" xmlns:xlink="http://www.w3.org/1999/xlink" x="0px" y="0px"
	 viewBox="0 0 270 271.9" style="enable-background:new 0 0 270 271.9;" xml:space="preserve">
<g id="_2063541826304">
	<path d="M9.9,173.9c1.4,16.4,20.2,57.6,27.1,70.6c18.7-5,14.4-10.9,21.7-10.9c68.6,0,34.6,67.7,149-8.8
		c38-25.4,51.4-20.2,52.3-56.5c-58.8,1.3-72.3,72-144.2,51.8c-31.3-8.8-11.6,4.3-18.8-13.8c17.7,8.4,64,8.4,81.5,0
		c-2.9-34.8-16-15.7-47.7-28.4C108.8,169.4,100.6,125.9,9.9,173.9z"/>
	<path d="M113.2,81.5c12.6-23.7-2-9.1,21.7-21.7c23.7,12.6,9.1-2,21.7,21.7c-12.6,23.7,2,9.1-21.7,21.7
		C111.2,90.6,125.8,105.2,113.2,81.5z M118.7,32.5c-20.1-5.4-7-5.5-27.1-10.9c-21.9,31.5-14.3,5.7-5.4,43.5H64.4v32.6h21.7
		c-5.4,20.1-5.5,7-10.9,27.1c31.5,21.9,5.7,14.3,43.5,5.4V152h32.6v-21.7c22,5.1,21.3,15.7,34.8,2.2c13.4-13.4,2.9-12.9-2.2-34.8
		h21.7V65H184c5.1-22,15.7-21.3,2.2-34.8c-13.4-13.4-12.9-2.9-34.8,2.2V10.6h-32.6v21.9H118.7z"/>
	<path d="M178.4,184.7c18.8,15.8,30.4-9.9,54.4-16.3C216.7,139.7,181.4,180.8,178.4,184.7z"/>
	<path d="M145.8,173.9c30.4,0,42-4.8,54.4-21.7C172,152.1,157.6,157.7,145.8,173.9z"/>
</g>
</svg>
