<?xml version="1.0" encoding="utf-8"?>
<!-- Generator: Adobe Illustrator 21.1.0, SVG Export Plug-In . SVG Version: 6.00 Build 0)  -->
<svg version="1.1" id="Слой_1" xmlns="http://www.w3.org/2000/svg" xmlns:xlink="http://www.w3.org/1999/xlink" x="0px" y="0px"
	 viewBox="0 0 479 473" style="enable-background:new 0 0 479 473;" xml:space="preserve">
<style type="text/css">
	.st0{fill:none;stroke:#000000;stroke-miterlimit:10;}
	.st1{fill:none;stroke:#2B2A29;stroke-miterlimit:22.9256;}
</style>
<circle class="st0" cx="240.1" cy="237.2" r="228"/>
<g id="Слой_x0020_1">
	<path class="st1" d="M119.6,117c80.1,0,160.1,0,240.2,0c0,9.9,0,19.8,0,29.6c2.6,9.5,5.2,19.1,6.4,26.8c1.2,7.7,0.9,13.7-0.3,19.8
		c-1.2,6.1-3.5,12.4-5.8,18.7c0,48.5,0,97.1,0,145.6c-79.8,0-159.7,0-239.5,0c0-47.3,0-94.4,0-141.7c-1.8-3-3.6-5.9-4.9-9.6
		c-1.4-3.7-2.3-8.1-2.5-13.7c-0.2-5.6,0.4-12.3,1.6-19.8s3.1-15.7,5.1-23.9C119.9,138.2,119.7,127.5,119.6,117L119.6,117z
		 M119.9,148.7c80.1,0,160.2,0,200.3-0.1c40-0.1,40-0.1,40.1-0.1c0,0.1,0.1,0.2,0.1,0.4 M156.3,148.7c0,22.3,0,44.8,0,67.1
		 M198.5,148.7c0,22.3,0,44.8,0,67.1 M240.2,148.8c0,21.8,0,43.8,0,65.6 M281.6,148.7c0,22.5,0,45,0,67.5 M324.1,148.6
		c0,22.1,0,44.3,0,66.5 M120.7,215.8c2.1,1.7,4.1,3.4,6.7,4.6c2.6,1.1,5.9,1.7,8.9,1.8c3.1,0,6.1-0.6,9.4-1.7
		c3.3-1.1,6.9-2.9,10.6-4.6c1.3,0.8,2.6,1.6,5.1,2.6s6,2.5,8.9,3.4c2.9,0.9,4.9,1.1,7.9,0.9c2.9-0.3,6.6-1.1,9.9-2.1
		c3.2-1.1,6-2.3,7.6-3.1c1.6-0.9,2.3-1.3,2.9-1.7c3.4,1.4,6.7,2.9,9.6,4.2c2.9,1.3,5.4,2.4,8,3c2.6,0.6,5.2,0.6,7.6,0
		c2.4-0.6,4.7-1.6,7.1-2.9c2.5-1.3,5.1-2.7,6.7-3.7c1.6-1,2.1-1.5,2.6-2.1c2.3,1.3,4.6,2.6,6.6,3.6c2.1,1.1,3.9,1.9,6.4,2.4
		s5.7,1,8.9,0.9c3.2-0.1,6.4-0.6,9.7-1.5c3.3-0.9,6.6-2.3,9.9-3.6c3.4,1.2,6.6,2.5,10.3,3.4c3.6,0.9,7.5,1.5,11.4,1.5
		c4,0,8.1-0.7,11.5-1.8c3.5-1.1,6.4-2.6,9.3-4.2c2.7,1.4,5.4,2.6,8.7,3.7c3.4,1,7.4,1.7,11.1,1.5c3.7-0.2,7.1-1.4,9.8-2.9
		c2.6-1.6,4.6-3.5,6.5-5.5 M150.1,250.3c32,0,63.9,0,95.9,0c0,25.7,0,51.4,0,77.1c-32,0-63.9,0-95.9,0
		C150.1,301.7,150.1,276,150.1,250.3L150.1,250.3z M276.8,357.5c0-35.7,0-71.4,0-107.1c17.8,0,35.7,0,53.5,0c0,35.7,0,71.4,0.1,89.2
		c0.1,17.8,0.4,17.8,0.7,17.8c0.4,0,0.9,0,1.3,0"/>
</g>
</svg>
