<?xml version="1.0" encoding="utf-8"?>
<!-- Generator: Adobe Illustrator 21.1.0, SVG Export Plug-In . SVG Version: 6.00 Build 0)  -->
<svg version="1.1" id="Слой_1" xmlns="http://www.w3.org/2000/svg" xmlns:xlink="http://www.w3.org/1999/xlink" x="0px" y="0px"
	 viewBox="0 0 369 351" style="enable-background:new 0 0 369 351;" xml:space="preserve">
<style type="text/css">
	.st0{fill:none;stroke:#2B2A29;stroke-width:15;stroke-miterlimit:22.9256;}
</style>
<g id="Слой_x0020_1">
	<path class="st0" d="M15,6.4c112.2,0,224.3,0,336.5,0c0,13.8,0,27.7,0,41.5c3.7,13.3,7.3,26.7,9,37.5c1.7,10.8,1.3,19.2-0.4,27.8
		c-1.7,8.6-4.9,17.4-8.1,26.2c0,68,0,136,0,204c-111.8,0-223.7,0-335.5,0c0-66.2,0-132.3,0-198.5c-2.5-4.2-5-8.3-6.9-13.5
		c-1.9-5.2-3.2-11.3-3.5-19.2c-0.3-7.8,0.6-17.3,2.3-27.8c1.7-10.5,4.4-22,7.1-33.5C15.4,36.1,15.2,21.2,15,6.4L15,6.4z M15.5,50.9
		c112.2,0,224.5,0,280.6-0.1c56.1-0.1,56.1-0.2,56.2-0.1c0,0.1,0.1,0.3,0.2,0.5 M66.5,50.9c0,31.3,0,62.7,0,94 M125.5,50.9
		c0,31.3,0,62.7,0,94 M184,51c0,30.6,0,61.3,0,91.9 M242,50.9c0,31.5,0,63,0,94.5 M301.5,50.8c0,31,0,62,0,93.1 M16.5,144.9
		c2.9,2.4,5.8,4.8,9.4,6.4c3.7,1.6,8.2,2.4,12.5,2.5c4.4,0,8.6-0.8,13.2-2.4s9.7-4,14.8-6.4c1.8,1.1,3.7,2.2,7.1,3.7
		c3.4,1.5,8.4,3.5,12.4,4.7c4,1.2,6.9,1.6,11,1.3c4.1-0.4,9.3-1.5,13.8-2.9c4.5-1.5,8.4-3.2,10.7-4.4c2.3-1.2,3.2-1.8,4-2.4
		c4.7,2,9.4,4.1,13.5,5.9c4.1,1.8,7.6,3.4,11.2,4.2c3.6,0.8,7.3,0.8,10.7,0s6.6-2.2,10-4c3.5-1.8,7.2-3.8,9.4-5.2
		c2.2-1.4,2.9-2.1,3.6-2.9c3.2,1.8,6.4,3.6,9.2,5c2.9,1.5,5.4,2.6,8.9,3.4c3.5,0.8,8,1.4,12.4,1.3c4.5-0.1,9-0.8,13.6-2.1
		c4.6-1.3,9.3-3.2,13.9-5.1c4.7,1.7,9.3,3.5,14.4,4.8c5,1.3,10.5,2.1,16,2.1c5.6,0,11.3-1,16.1-2.5c4.9-1.5,8.9-3.7,13-5.9
		c3.8,1.9,7.5,3.7,12.2,5.2c4.7,1.4,10.3,2.4,15.5,2.1c5.2-0.3,9.9-1.9,13.7-4.1c3.7-2.2,6.4-4.9,9.1-7.7 M57.7,193.2
		c44.8,0,89.5,0,134.3,0c0,36,0,72,0,108c-44.8,0-89.5,0-134.3,0C57.7,265.2,57.7,229.2,57.7,193.2L57.7,193.2z M235.2,343.4
		c0-50,0-100,0-150c25,0,50,0,75,0c0,50,0,100,0.2,125c0.2,25,0.5,25,1,25s1.2,0,1.8,0"/>
</g>
</svg>
