<?xml version="1.0" encoding="UTF-8"?>
<!DOCTYPE svg PUBLIC "-//W3C//DTD SVG 1.1//EN" "http://www.w3.org/Graphics/SVG/1.1/DTD/svg11.dtd">
<!-- Creator: CorelDRAW 2018 (64-Bit) -->
<svg xmlns="http://www.w3.org/2000/svg" xml:space="preserve" width="210mm" height="297mm" version="1.1" style="shape-rendering:geometricPrecision; text-rendering:geometricPrecision; image-rendering:optimizeQuality; fill-rule:evenodd; clip-rule:evenodd"
viewBox="0 0 21000 29700"
 xmlns:xlink="http://www.w3.org/1999/xlink">
 <defs>
  <style type="text/css">
   <![CDATA[
    .str0 {stroke:#2B2A29;stroke-width:400;stroke-miterlimit:22.9256}
    .fil0 {fill:none}
   ]]>
  </style>
 </defs>
 <g id="Слой_x0020_1">
  <metadata id="CorelCorpID_0Corel-Layer"/>
  <path class="fil0 str0" d="M4939.73 2801c3956.99,0 7913.99,0 11870.98,0 0,488.01 0,976.02 0,1464.03 129.35,470.37 258.7,940.74 317.49,1322.92 58.8,382.17 47.05,676.16 -14.69,978.96 -61.73,302.8 -173.45,614.42 -285.16,926.04 0,2398.89 0,4797.78 0,7196.67 -3945.23,0 -7890.47,0 -11835.7,0 0,-2334.21 0,-4668.43 0,-7002.64 -88.2,-146.99 -176.39,-293.98 -244.01,-476.25 -67.62,-182.27 -114.65,-399.81 -123.47,-676.15 -8.82,-276.35 20.58,-611.49 82.32,-981.9 61.73,-370.42 155.81,-776.12 249.88,-1181.81 -5.88,-523.29 -11.76,-1046.58 -17.64,-1569.87zm17.64 1569.87c3959.73,0 7919.45,0 9899.31,-1.97 1979.87,-1.97 1979.87,-5.91 1981.03,-3.64 1.17,2.26 3.49,10.74 5.82,19.21m-10086.92 -13.61c0,1105.41 0,2210.81 0,3316.22m2081.39 -3316.28c0,1105.43 0,2210.85 0,3316.28m2062.45 -3312.56c0,1080.67 0,2161.33 0,3242m2047.42 -3246.45c0,1111.55 0,2223.1 0,3334.65m2098.94 -3336.02c0,1094.37 0,2188.73 0,3283.1m-10054.16 35.18c101.44,83.81 202.88,167.63 332.98,224.24 130.09,56.6 288.84,86 442.45,86.74 153.6,0.73 302.06,-27.2 465.96,-83.79 163.9,-56.59 343.23,-141.84 522.57,-227.09 64.67,38.21 129.34,76.43 249.87,130.82 120.53,54.38 296.92,124.93 437.3,167.56 140.37,42.63 244.74,57.32 388.79,44.83 144.05,-12.5 327.78,-52.18 487.27,-103.63 159.48,-51.45 294.72,-114.65 377.04,-156.54 82.31,-41.89 111.72,-62.47 141.12,-83.04 166.09,72.02 332.19,144.04 476.97,207.98 144.78,63.94 268.26,119.79 394.67,147.72 126.41,27.93 255.77,27.93 376.3,1.47 120.53,-26.46 232.25,-79.37 354.25,-141.84 122,-62.47 254.29,-134.5 332.72,-183.74 78.42,-49.24 102.98,-75.69 127.54,-102.15 112.14,63.2 224.29,126.41 325.19,177.86 100.9,51.44 190.57,91.12 314.04,120.52 123.47,29.4 280.75,48.51 438.76,45.57 158.02,-2.94 316.78,-27.93 478.47,-74.23 161.69,-46.3 326.33,-113.91 490.96,-181.52 164.63,61.73 329.25,123.47 507.11,169.04 177.86,45.56 368.94,74.95 565.17,73.48 196.24,-1.47 397.62,-33.8 569.58,-88.18 171.97,-54.39 314.53,-130.83 457.08,-207.26 132.32,66.14 264.64,132.29 430.02,182.27 165.38,49.97 363.81,83.77 546.81,72.75 183.01,-11.03 350.58,-66.88 482.12,-143.33 131.55,-76.45 227.07,-173.5 322.59,-270.54m-10384.84 1896.28c1578.69,0 3157.37,0 4736.06,0 0,1270.01 0,2540.01 0,3810.02 -1578.69,0 -3157.37,0 -4736.06,0 0,-1270.01 0,-2540.01 0,-3810.02zm6261.82 5300.39c0,-1763.85 0,-3527.71 0,-5291.56 881.95,0 1763.89,0 2645.84,0 0,1763.85 0,3527.71 5.88,4409.63 5.88,881.93 17.64,881.93 35.28,881.93 17.64,0 41.15,0 64.67,0"/>
 </g>
</svg>
