<?xml version="1.0" encoding="utf-8"?>
<!-- Generator: Adobe Illustrator 21.1.0, SVG Export Plug-In . SVG Version: 6.00 Build 0)  -->
<svg version="1.1" id="Слой_1" xmlns="http://www.w3.org/2000/svg" xmlns:xlink="http://www.w3.org/1999/xlink" x="0px" y="0px"
	 viewBox="0 0 270 271.9" style="enable-background:new 0 0 270 271.9;" xml:space="preserve">
<g id="_2063541828416">
	<path d="M8.9,237c0,12.8,9.1,21.9,21.9,21.9h197c40,0,32.8-21.3,32.8-60.2h-21.9c0,52.3,19.5,38.3-191.6,38.3
		c-20.1,0-16.4-11.7-16.4-38.3H8.9V237L8.9,237z"/>
	<path d="M123.9,154.9c-16.9-11.3-12.2-16.4-32.8-21.9c-10.5,21.8-4.6,21.1,11.9,37.2c11.5,11.2,19.4,20.2,31.8,28.5
		c12.5-8.3,20.3-17.3,31.8-28.5c16.5-16.1,22.4-15.4,11.9-37.2c-20.7,5.5-15.9,10.6-32.8,21.9V18.1h-21.9v136.8H123.9z"/>
</g>
</svg>
