<svg xmlns="http://www.w3.org/2000/svg" xmlns:xlink="http://www.w3.org/1999/xlink"><defs><symbol viewBox="0 0 429.3 438" id="fabric"><style>#fabric .st0{fill:none;stroke:#2b2a29;stroke-width:15;stroke-miterlimit:22.9256}#fabric .st1{fill:#2b2a29}</style><g id="fabric_Слой_x0020_1"><g id="fabric__1552460553824"><path class="st0" d="M422.2 427.4V155.1c-28.1-23.6-56.3-47.2-84.4-70.9-28.3 23-56.5 46-84.8 69v74.6H90.6" /><path class="st0" d="M116.2 227.8V84.2h-57v142.9H7.4c-.1 66.8-.2 133.5-.4 200.3M90 56.1c6.8-7 13.5-14 20.8-18.6 7.2-4.6 15-6.9 22.2-7.7 7.2-.9 14-.4 20.4 2 6.4 2.4 12.4 6.6 17.7 7.7 5.4 1.1 10.1-.9 14.3-4.5 4.1-3.6 7.6-8.9 13-13.5S211 12.9 219.1 11c8.1-1.9 17.1-1.6 26.1-1.4M230.2 59.9c9-1 18-2 26.7-3.6s17.3-3.9 25-7.6c7.7-3.8 14.8-9 22.1-15.4 7.4-6.4 15.1-13.9 22.9-21.4" /><path class="st1" d="M289.5 200.1h18.8v36.8h-18.8zM326.2 200.1H345v36.8h-18.8zM364.1 200.1h18.8v36.8h-18.8zM289.5 265.4h18.8v36.8h-18.8zM326.2 265.4H345v36.8h-18.8zM364.1 265.4h18.8v36.8h-18.8zM289.5 331.8h18.8v36.8h-18.8zM326.2 331.8H345v36.8h-18.8zM364.1 331.8h18.8v36.8h-18.8zM101 266.3h37.7v18.4H101zM44.4 266.3h37.7v18.4H44.4zM157.5 266.3h37.7v18.4h-37.7zM214.1 266.3h37.7v18.4h-37.7z" /><path class="st0" d="M0 427.4h429.3" /></g></g></symbol><symbol viewBox="0 0 452.8 430.6" id="flat"><style>#flat .st0{fill:none;stroke-width:10}#flat .st0,#flat .st1{stroke:#000;stroke-miterlimit:10}</style><g id="flat_Слой_x0020_1"><path class="st0" d="M11.7 80l107.4-63 108 61.8v333.7l-216.7-2.4C10.9 300 11.3 190 11.7 80z" /><path class="st1" d="M70.1 116.8h25.7v25.7H70.1zM141.4 116.8h25.7v25.7h-25.7zM70.1 186.9h25.7v25.7H70.1zM141.4 186.9h25.7v25.7h-25.7zM70.1 260.2h25.7v25.7H70.1zM141.4 260.2h25.7v25.7h-25.7zM70.1 330.3h25.7V356H70.1zM141.4 330.3h25.7V356h-25.7z" /><path class="st0" d="M226.8 82l107.4-63 108 61.8v333.7l-216.7-2.4c.5-110.1.9-220.1 1.3-330.1z" /><path class="st1" d="M285.2 116.8h25.7v25.7h-25.7zM356.5 116.8h25.7v25.7h-25.7zM285.2 186.9h25.7v25.7h-25.7zM356.5 186.9h25.7v25.7h-25.7zM285.2 260.2h25.7v25.7h-25.7zM356.5 260.2h25.7v25.7h-25.7zM285.2 330.3h25.7V356h-25.7zM356.5 330.3h25.7V356h-25.7z" /></g></symbol><symbol viewBox="0 0 386.2 384" id="home"><style>#home .st0{fill:none;stroke:#2b2a29;stroke-width:15;stroke-miterlimit:22.9256}#home .st1{fill:#2b2a29}</style><g id="home_Слой_x0020_1"><g id="home__1552456458384"><path class="st0" d="M0 0h386.2v174.1H285.7l-86.5-86.5-90.4 90.4c-36 .1-72.1.1-108.1.2C.5 118.8.2 59.4 0 0z" /><path class="st0" d="M20.6 178.2V384h140.1V264h72v118.9H370V174.1" /><path class="st1" d="M75 249.4h31.3v65.3H75zM284.8 249.4h31.3v65.3h-31.3z" /></g></g></symbol><symbol viewBox="0 0 270 271.9" id="pass"><path d="M155.3 188.9l43.7-31.3 44.1 33.2c-9.4 17.6-9.4 8.7 0 26.3l-9.1 8.2c-2.1 2-10 10-11.1 10.8-5.8 4.3-15.9 8.9-23.9 14.2-8.1-5.3-18.2-9.9-23.9-14.2l-20.2-19c10.2-19.1 8.5-8.2.4-28.2zM51.6 228.5c63.3 0 89.7-8.7 103.7 10.9H40.7v-131H199c0 23.6 6.2 25.9-10.9 38.2v-27.3H51.6v109.2zm81.9-196.4H199v65.5h-65.5V32.1zm-92.8 0h65.5v65.5H40.7V32.1zM18.9 261.2c37.3 0 153.2-8.6 180.1 6.4 25.2-19.4 12.7-6.4 40.1-15.4l20-29.2c-6-24.7-6-13.5 0-38.2-30.2-26.7-6.9-12.9-21.4-27.7-16.9-17.2-17.5 14.5-16.9-37.6.4-36.4.2-72.9.2-109.3H18.9v251z" /><path d="M51.6 86.6h43.7V43H51.6zM144.4 86.6h43.7V43h-43.7z" /></symbol><symbol viewBox="0 0 452.4 449.6" id="pool"><style>#pool .st0{fill:none;stroke:#2b2a29;stroke-width:5;stroke-miterlimit:22.9256}</style><g id="pool_Слой_x0020_1"><path class="st0" d="M0 114.6L228.6 0l37.1 21 185.5 105M271.2 168c-10.2 5.8-20.4 11.6-27.9 17.4-7.5 5.8-12.3 11.6-15 21.5-2.7 9.9-3.3 23.9-3.3 47.7s.6 57.4 1.2 91M225.5 307.2H339M225 245.4l113.4-.6M377.4 171.6c-8.8 4.4-17.6 8.8-24.2 14.3-6.6 5.5-11 12.1-13 18.8-2 6.7-1.6 13.5-1.5 36.9.1 23.4-.1 63.4-.3 103.4M3 391.2c6.4-.6 12.8-1.2 20.7-3.3 7.9-2.1 17.3-5.7 23.7-9.5 6.4-3.8 9.8-7.8 11.5-9.8 1.7-2 1.7-2 3.8.3 2.1 2.3 6.3 6.9 12 10.9s12.9 7.4 21.9 9.2 19.8 2 30.3.2 20.7-5.6 28.3-10.3c7.6-4.7 12.6-10.3 15.1-13.1 2.5-2.8 2.5-2.8 5.4.5 2.9 3.3 8.7 9.9 16.7 14.3s18.2 6.6 28.3 7.4c10.1.8 20.1.2 29.4-2.8 9.3-3 17.9-8.4 23.2-12.4 5.3-4 7.3-6.6 8.3-7.9 1-1.3 1-1.3 4.5 1.9s10.5 9.6 18.7 14.2 17.6 7.4 26.6 8.3 17.6-.1 26.1-2.7 16.9-6.8 22.8-10.8c5.9-4 9.3-7.8 12.7-11.6 4.2 4.4 8.4 8.8 13.9 12.6 5.5 3.8 12.3 7 20.1 8.8 7.8 1.8 16.6 2.2 25.4 2.6M3 452.8c6.4-.6 12.8-1.2 20.7-3.3 7.9-2.1 17.3-5.7 23.7-9.5 6.4-3.8 9.8-7.8 11.5-9.8 1.7-2 1.7-2 3.8.3 2.1 2.3 6.3 6.9 12 10.9s12.9 7.4 21.9 9.2c9 1.8 19.8 2 30.3.2s20.7-5.6 28.3-10.3c7.6-4.7 12.6-10.3 15.1-13.1 2.5-2.8 2.5-2.8 5.4.5 2.9 3.3 8.7 9.9 16.7 14.3s18.2 6.6 28.3 7.4c10.1.8 20.1.2 29.4-2.8 9.3-3 17.9-8.4 23.2-12.4 5.3-4 7.3-6.6 8.3-7.9 1-1.3 1-1.3 4.5 1.9s10.5 9.6 18.7 14.2 17.6 7.4 26.6 8.3 17.6-.1 26.1-2.7 16.9-6.8 22.8-10.8c5.9-4 9.3-7.8 12.7-11.6 4.2 4.4 8.4 8.8 13.9 12.6 5.5 3.8 12.3 7 20.1 8.8 7.8 1.8 16.6 2.2 25.4 2.6" /></g></symbol><symbol viewBox="0 0 270 271.9" id="proj"><path d="M54.8 178.3L12.2 172l-.2 22.3c23.1-.5 21.9-4.8 47.9-5.5 19.1-.6 39.7.2 58.9.2v16h32v-16l106.8 5.3V173l-42.6 6.3c-13.3-25.8-30.6-56.5-37.5-86.4-11.5 7.7-15.7 12.2-32 16 5.5 23.4 20.8 44 26.7 69.4H151v-16h-32v16H97.6c5.9-25.4 21.2-46 26.7-69.4-16.3-3.8-20.5-8.3-32-16-7 29.9-24.3 60.5-37.5 85.4z" /><path d="M117.8 67.3l16-18.3 18.3 16-16 18.3-18.3-16zm-20.2-1.1c0 51.3 74.8 51.3 74.8 0-.1-51.3-74.8-51.3-74.8 0zM241.7 269.1c-3.6-15.6-3-18.5-6-36.7-3-18.1-5.9-15.2-10-32.7h-37.4c3.5 15.2 8.1 31.4 16.5 42.2.7.9 1.8 2 2.5 2.8 13.2 15.3-8.8-9.1 5.4 5.3l8 8c15.3 13.9-6.7 8.1 21 11.1zM28.1 269.1c14.2-1.6 9.2 4.5 34.3-24.4 9.6-11.1 17.6-27.8 19.1-45H44.2l-16.1 69.4z" /><path d="M118.9 23.5c6.5-3.7 5.7-5.3 16-5.3 20.4 0 1.9-1.6 16 5.3V2.1h-32v21.4z" /></symbol><symbol viewBox="0 0 220.5 336.5" id="rest"><style>#rest .st0{fill:none;stroke:#2b2a29;stroke-width:5;stroke-miterlimit:22.9256}</style><g id="rest_Слой_x0020_1"><path class="st0" d="M212.3 262.3c.3-52.9.3-153.1-.4-204-.7-51-2.2-52.8-5.2-54.8S199.2-.7 194 .2c-5.2.9-11.2 4.9-17.1 10.9-5.8 6-11.5 14.1-15.7 23.4-4.2 9.3-6.9 19.8-8.8 30.4-1.9 10.6-3.1 21.4-2.8 31.9.3 10.5 2.1 20.7 5.1 31.3 3 10.6 7.2 21.7 11.7 29.8 4.5 8.1 9.3 13.2 11.5 17.7 2.2 4.5 1.9 8.4.3 18-1.6 9.6-4.6 24.9-7.5 40.3-2.8 15.4-5.5 31-6.9 45-1.3 13.9-1.3 26.2.2 34.9s4.5 13.8 9.9 17.4c5.4 3.6 13.2 5.8 19.8 4.8 6.6-1 12-5.3 15-10.3 2.7-4.8 3.3-10.5 3.6-63.4zM80.9 289.4c.2-30.1-.4-85.8-.3-114.9.1-29.2.8-31.9 3.4-35.3 2.5-3.4 6.9-7.6 10.8-13.3 3.9-5.6 7.2-12.7 8.1-24.3.8-11.6-.9-27.7-2.6-41.4-1.8-13.6-3.6-24.8-5.1-34-1.6-9.2-2.8-16.5-4-23.8h-72c-1.8 7.9-3.6 15.9-5.3 27.1-1.8 11.1-3.4 25.5-4.8 38.7-1.4 13.3-2.6 25.4-1.2 35.6 1.4 10.2 5.5 18.4 9.7 24.7 4.3 6.3 8.8 10.6 11.6 15.5 2.8 4.9 4 10.3 3.7 38.4-.3 28.1-2.1 78.9-2.7 106.5-.6 27.6 0 31.9 2.5 35.5 2.5 3.5 6.8 6.2 11.5 7.6 4.7 1.4 9.8 1.6 15.6.8 5.8-.7 12.2-2.4 16-5.5 3.8-3.1 4.9-7.7 5.1-37.9zM41.7 2.4v96.2M68.7 2.4v95.3" /></g></symbol><symbol viewBox="0 0 456 442.5" id="sauna"><style>#sauna .st0{fill:none;stroke:#2b2a29;stroke-width:15;stroke-miterlimit:22.9256}</style><g id="sauna_Слой_x0020_1"><g id="sauna__1552453666224"><path class="st0" d="M6.7 188L228.9 9.6l101.3 85.2V60.2H374l1.1 62.2 72.6 61" /><path class="st0" d="M420.8 160.9l-.8 272.4-385.7-1.2 1.4-267.4" /><path class="st0" d="M75.9 201.3c2.9 2.3 5.8 4.6 8.3 7.9 2.6 3.3 4.9 7.5 5.5 11.6.6 4.1-.6 8.2-2.4 11.6-1.8 3.5-4.3 6.3-6.9 10.3-2.6 3.9-5.3 8.9-6.8 13.7-1.5 4.8-1.9 9.4-.7 13.4s4.1 7.5 7.3 10.9c3.2 3.5 6.6 6.9 10.1 10.4M333.2 201.3c2.9 2.3 5.8 4.6 8.3 7.9 2.6 3.3 4.9 7.5 5.5 11.6.6 4.1-.6 8.2-2.4 11.6-1.8 3.5-4.3 6.3-6.9 10.3-2.6 3.9-5.3 8.9-6.8 13.7-1.5 4.8-1.9 9.4-.7 13.4s4.1 7.5 7.3 10.9c3.2 3.5 6.6 6.9 10.1 10.4M113 200.6c2.9 2.3 5.8 4.6 8.3 7.9 2.6 3.3 4.9 7.5 5.5 11.6.6 4.1-.6 8.2-2.4 11.6-1.8 3.5-4.3 6.3-6.9 10.3-2.6 3.9-5.3 8.9-6.8 13.7-1.5 4.8-1.9 9.4-.7 13.4s4.1 7.5 7.3 10.9c3.2 3.5 6.6 6.9 10.1 10.4M370.2 201.3c2.9 2.3 5.8 4.6 8.3 7.9 2.6 3.3 4.9 7.5 5.5 11.6.6 4.1-.6 8.2-2.4 11.6-1.8 3.5-4.3 6.3-6.9 10.3-2.6 3.9-5.3 8.9-6.8 13.7-1.5 4.8-1.9 9.4-.7 13.4s4.1 7.5 7.3 10.9c3.2 3.5 6.6 6.9 10.1 10.4" /><circle class="st0" cx="229.6" cy="193.3" r="34.5" /><path class="st0" d="M231.4 238.9c-8.9-.4-15.4-.6-21.4-.2-5.9.4-11.3 1.3-16.3 4.8s-9.6 9.4-13.4 15.7c-3.8 6.3-6.9 13-10 20.1-3.1 7-6.1 14.3-7.8 21.2-1.6 6.9-1.8 13.4.2 18.1 2 4.7 6.2 7.6 11.8 8.7 5.6 1.2 12.5.6 23.6.4 11.1-.2 26.5 0 39.1.2 12.6.2 22.4.4 30.8.2 8.4-.2 15.5-.8 20.1-3.5 4.5-2.8 6.4-7.8 6.1-14.9-.3-7.1-2.8-16.3-5.9-25.2-3.1-8.9-6.7-17.6-11-24.9-4.3-7.3-9.3-13.2-17.5-16.5-8.1-3.2-19.5-3.8-28.4-4.2z" /><path class="st0" d="M237.2 328c4.8-2.7 9.5-5.4 11.1-9.4 1.5-4-.2-9.4-4.2-13.2-4-3.8-10.2-6-18.5-7s-18.5-.6-28.8-.3M183.5 328.1c-4.8 3.8-9.6 7.6-12.8 11.3-3.2 3.7-4.7 7.4-5.5 13.6-.8 6.2-.8 15.1.1 23.5s2.6 16.5 3.8 24.6c1.2 8.1 2 16.1 3.6 21.4 1.6 5.2 4.1 7.7 8.6 8.9 4.5 1.2 11 1.2 16.3-.2 5.3-1.4 9.3-4.2 10.7-9.7 1.4-5.4.3-13.5-1.2-20.5-1.4-7-3.2-13-3.8-18.5-.7-5.6-.3-10.7 2.4-15.2 2.7-4.4 7.7-8.1 12-10.7 4.3-2.7 8-4.4 13.1-3.6 5.2.8 11.9 4 16 8.6s5.7 10.6 5.6 17.6c-.1 7-1.8 15.1-3 22.5-1.2 7.5-1.7 14.4-1.3 19.5.4 5.1 1.7 8.4 6.8 10 5.1 1.7 13.9 1.7 20.6-.9 6.7-2.6 11.3-7.8 14.1-15 2.8-7.2 3.7-16.4 4.7-26.5 1-10.1 1.9-21-.8-30.1-2.7-9.1-9-16.4-13.9-21.2-4.9-4.8-8.4-7-12-9.2" /><path class="st0" d="M231.1 352.9c.1-4.9.1-9.7 0-13.9-.2-4.2-.5-7.7-.9-11.2M34.7 349.9H144c21.9 0 21.9-.1 21.9-.2M291.2 351.9h129.1" /></g></g></symbol><symbol viewBox="0 0 270 271.9" id="service"><path d="M9.9 173.9c1.4 16.4 20.2 57.6 27.1 70.6 18.7-5 14.4-10.9 21.7-10.9 68.6 0 34.6 67.7 149-8.8 38-25.4 51.4-20.2 52.3-56.5-58.8 1.3-72.3 72-144.2 51.8-31.3-8.8-11.6 4.3-18.8-13.8 17.7 8.4 64 8.4 81.5 0-2.9-34.8-16-15.7-47.7-28.4-22-8.5-30.2-52-120.9-4z" /><path d="M113.2 81.5c12.6-23.7-2-9.1 21.7-21.7 23.7 12.6 9.1-2 21.7 21.7-12.6 23.7 2 9.1-21.7 21.7-23.7-12.6-9.1 2-21.7-21.7zm5.5-49c-20.1-5.4-7-5.5-27.1-10.9-21.9 31.5-14.3 5.7-5.4 43.5H64.4v32.6h21.7c-5.4 20.1-5.5 7-10.9 27.1 31.5 21.9 5.7 14.3 43.5 5.4V152h32.6v-21.7c22 5.1 21.3 15.7 34.8 2.2 13.4-13.4 2.9-12.9-2.2-34.8h21.7V65H184c5.1-22 15.7-21.3 2.2-34.8-13.4-13.4-12.9-2.9-34.8 2.2V10.6h-32.6v21.9h-.1zM178.4 184.7c18.8 15.8 30.4-9.9 54.4-16.3-16.1-28.7-51.4 12.4-54.4 16.3zM145.8 173.9c30.4 0 42-4.8 54.4-21.7-28.2-.1-42.6 5.5-54.4 21.7z" /></symbol><symbol viewBox="0 0 369 351" id="shop"><path d="M15 6.4h336.5v41.5c3.7 13.3 7.3 26.7 9 37.5 1.7 10.8 1.3 19.2-.4 27.8-1.7 8.6-4.9 17.4-8.1 26.2v204H16.5V144.9c-2.5-4.2-5-8.3-6.9-13.5-1.9-5.2-3.2-11.3-3.5-19.2-.3-7.8.6-17.3 2.3-27.8 1.7-10.5 4.4-22 7.1-33.5-.1-14.8-.3-29.7-.5-44.5h0zm.5 44.5c112.2 0 224.5 0 280.6-.1 56.1-.1 56.1-.2 56.2-.1 0 .1.1.3.2.5m-286-.3v94m59-94v94M184 51v91.9m58-92v94.5m59.5-94.6v93.1m-285 1c2.9 2.4 5.8 4.8 9.4 6.4 3.7 1.6 8.2 2.4 12.5 2.5 4.4 0 8.6-.8 13.2-2.4s9.7-4 14.8-6.4c1.8 1.1 3.7 2.2 7.1 3.7 3.4 1.5 8.4 3.5 12.4 4.7 4 1.2 6.9 1.6 11 1.3 4.1-.4 9.3-1.5 13.8-2.9 4.5-1.5 8.4-3.2 10.7-4.4 2.3-1.2 3.2-1.8 4-2.4 4.7 2 9.4 4.1 13.5 5.9 4.1 1.8 7.6 3.4 11.2 4.2 3.6.8 7.3.8 10.7 0s6.6-2.2 10-4c3.5-1.8 7.2-3.8 9.4-5.2 2.2-1.4 2.9-2.1 3.6-2.9 3.2 1.8 6.4 3.6 9.2 5 2.9 1.5 5.4 2.6 8.9 3.4 3.5.8 8 1.4 12.4 1.3 4.5-.1 9-.8 13.6-2.1s9.3-3.2 13.9-5.1c4.7 1.7 9.3 3.5 14.4 4.8 5 1.3 10.5 2.1 16 2.1 5.6 0 11.3-1 16.1-2.5 4.9-1.5 8.9-3.7 13-5.9 3.8 1.9 7.5 3.7 12.2 5.2 4.7 1.4 10.3 2.4 15.5 2.1 5.2-.3 9.9-1.9 13.7-4.1 3.7-2.2 6.4-4.9 9.1-7.7M57.7 193.2H192v108H57.7v-108h0zm177.5 150.2v-150h75c0 50 0 100 .2 125s.5 25 1 25h1.8" stroke-width="15" stroke-miterlimit="22.926" /></symbol><symbol viewBox="0 0 270 271.9" id="update"><path d="M8.9 237c0 12.8 9.1 21.9 21.9 21.9h197c40 0 32.8-21.3 32.8-60.2h-21.9c0 52.3 19.5 38.3-191.6 38.3-20.1 0-16.4-11.7-16.4-38.3H8.9V237zM123.9 154.9c-16.9-11.3-12.2-16.4-32.8-21.9-10.5 21.8-4.6 21.1 11.9 37.2 11.5 11.2 19.4 20.2 31.8 28.5 12.5-8.3 20.3-17.3 31.8-28.5 16.5-16.1 22.4-15.4 11.9-37.2-20.7 5.5-15.9 10.6-32.8 21.9V18.1h-21.9v136.8h.1z" /></symbol></defs></svg>