<svg xmlns="http://www.w3.org/2000/svg" xmlns:xlink="http://www.w3.org/1999/xlink"><defs><symbol viewBox="0 0 479 473" id="fabric"><style>#fabric .st1,#fabric .st2{fill:none;stroke:#2b2a29;stroke-miterlimit:22.9256}#fabric .st2{stroke:#000}</style><circle cx="239.6" cy="235.7" r="228" stroke-miterlimit="10" /><path class="st1" d="M391.6 379V182.1c-20.3-17.1-40.7-34.1-61-51.3-20.5 16.6-40.9 33.3-61.3 49.9v53.9H151.9" /><path class="st1" d="M170.3 234.6V130.8h-41.2v103.3H91.6c-.1 48.3-.1 96.5-.3 144.9M151.3 110.4c4.9-5.1 9.8-10.1 15-13.5 5.2-3.3 10.8-5 16.1-5.6 5.2-.7 10.1-.3 14.8 1.4 4.6 1.7 9 4.8 12.8 5.6 3.9.8 7.3-.7 10.3-3.3 3-2.6 5.5-6.4 9.4-9.8 3.9-3.3 9.1-6.2 15-7.6 5.9-1.4 12.4-1.2 18.9-1M252.7 113.2c6.5-.7 13-1.4 19.3-2.6 6.3-1.2 12.5-2.8 18.1-5.5 5.6-2.7 10.7-6.5 16-11.1 5.4-4.6 10.9-10.1 16.6-15.5M295.6 214.6h13.6v26.6h-13.6zM322.1 214.6h13.6v26.6h-13.6zM349.5 214.6h13.6v26.6h-13.6zM295.6 261.8h13.6v26.6h-13.6zM322.1 261.8h13.6v26.6h-13.6zM349.5 261.8h13.6v26.6h-13.6zM295.6 309.8h13.6v26.6h-13.6zM322.1 309.8h13.6v26.6h-13.6zM349.5 309.8h13.6v26.6h-13.6z" /><path class="st2" d="M159.3 262.5h27.3v13.3h-27.3zM118.3 262.5h27.3v13.3h-27.3zM200.1 262.5h27.3v13.3h-27.3zM241.1 262.5h27.3v13.3h-27.3z" /><path class="st1" d="M86.2 379h310.5" /></symbol><symbol viewBox="0 0 479 473" id="flat"><style>#flat .st0{fill:none;stroke:#000;stroke-miterlimit:10}</style><circle class="st0" cx="239.6" cy="235.7" r="228" /><g id="flat_Слой_x0020_1"><path class="st0" d="M92.2 142.4c24.6-14.4 49.2-28.8 73.7-43.3 24.7 14.1 49.4 28.3 74.2 42.4v229.1c-49.6-.5-99.2-1.1-148.8-1.6.4-75.5.7-151 .9-226.6z" /><path class="st0" d="M132.3 167.7h17.6v17.6h-17.6zM181.3 167.7h17.6v17.6h-17.6zM132.3 215.8h17.6v17.6h-17.6zM181.3 215.8h17.6v17.6h-17.6zM132.3 266.2h17.6v17.6h-17.6zM181.3 266.2h17.6v17.6h-17.6zM132.3 314.3h17.6v17.6h-17.6zM181.3 314.3h17.6v17.6h-17.6zM240 143.8c24.6-14.4 49.2-28.8 73.7-43.3 24.7 14.1 49.4 28.3 74.2 42.4V372c-49.6-.5-99.2-1.1-148.8-1.6l.9-226.6z" /><path class="st0" d="M280.1 167.7h17.6v17.6h-17.6zM329 167.7h17.6v17.6H329zM280.1 215.8h17.6v17.6h-17.6zM329 215.8h17.6v17.6H329zM280.1 266.2h17.6v17.6h-17.6zM329 266.2h17.6v17.6H329zM280.1 314.3h17.6v17.6h-17.6zM329 314.3h17.6v17.6H329z" /></g></symbol><symbol viewBox="0 0 479 473" id="home"><style>#home .st0,#home .st1{fill:none;stroke:#000;stroke-miterlimit:10}#home .st1{stroke-miterlimit:22.9256}</style><circle class="st0" cx="238.9" cy="236.1" r="228" /><g id="home_Слой_x0020_1_1_"><g id="home__1552456458384"><path class="st1" d="M113.7 111.6h250.5v112.9H299l-56.1-56.1-58.6 58.6c-23.3.1-46.8.1-70.1.1-.2-38.5-.4-77-.5-115.5z" /><path class="st1" d="M127 227.1v133.5h90.9v-77.8h46.7v77.1h89V224.5" /><path class="st0" d="M162.3 273.3h20.3v42.3h-20.3zM298.4 273.3h20.3v42.3h-20.3z" /></g></g></symbol><symbol viewBox="0 0 270 271.9" id="pass"><path d="M155.3 188.9l43.7-31.3 44.1 33.2c-9.4 17.6-9.4 8.7 0 26.3l-9.1 8.2c-2.1 2-10 10-11.1 10.8-5.8 4.3-15.9 8.9-23.9 14.2-8.1-5.3-18.2-9.9-23.9-14.2l-20.2-19c10.2-19.1 8.5-8.2.4-28.2zM51.6 228.5c63.3 0 89.7-8.7 103.7 10.9H40.7v-131H199c0 23.6 6.2 25.9-10.9 38.2v-27.3H51.6v109.2zm81.9-196.4H199v65.5h-65.5V32.1zm-92.8 0h65.5v65.5H40.7V32.1zM18.9 261.2c37.3 0 153.2-8.6 180.1 6.4 25.2-19.4 12.7-6.4 40.1-15.4l20-29.2c-6-24.7-6-13.5 0-38.2-30.2-26.7-6.9-12.9-21.4-27.7-16.9-17.2-17.5 14.5-16.9-37.6.4-36.4.2-72.9.2-109.3H18.9v251z" /><path d="M51.6 86.6h43.7V43H51.6zM144.4 86.6h43.7V43h-43.7z" /></symbol><symbol viewBox="0 0 479 473" id="pool"><style>#pool .st1{fill:none;stroke:#2b2a29;stroke-miterlimit:22.9256}</style><circle cx="238.9" cy="236.1" r="228" stroke-miterlimit="10" /><g id="pool_Слой_x0020_1"><path class="st1" d="M112.6 173.6c42.6-21.3 85.1-42.7 127.7-64l20.7 11.7c20.7 11.7 62.2 35.2 103.6 58.6M264 203.5c-5.7 3.2-11.4 6.5-15.6 9.7s-6.9 6.5-8.4 12-1.8 13.3-1.8 26.6.3 32.1.7 50.8M238.5 281.2h63.4M238.2 246.7l63.3-.3M323.3 205.5c-4.9 2.5-9.8 4.9-13.5 8-3.7 3.1-6.1 6.8-7.3 10.5s-.9 7.5-.8 20.6-.1 35.4-.2 57.7M114.2 328.1c3.6-.3 7.1-.7 11.6-1.8 4.4-1.2 9.7-3.2 13.2-5.3s5.5-4.4 6.4-5.5.9-1.1 2.1.2c1.2 1.3 3.5 3.9 6.7 6.1s7.2 4.1 12.2 5.1c5 1 11.1 1.1 16.9.1 5.9-1 11.6-3.1 15.8-5.8 4.2-2.6 7-5.8 8.4-7.3 1.4-1.6 1.4-1.6 3 .3 1.6 1.8 4.9 5.5 9.3 8 4.5 2.5 10.2 3.7 15.8 4.1 5.6.4 11.2.1 16.4-1.6 5.2-1.7 10-4.7 13-6.9s4.1-3.7 4.6-4.4c.6-.7.6-.7 2.5 1.1 2 1.8 5.9 5.4 10.4 7.9 4.6 2.6 9.8 4.1 14.9 4.6 5 .5 9.8-.1 14.6-1.5 4.7-1.5 9.4-3.8 12.7-6s5.2-4.4 7.1-6.5c2.3 2.5 4.7 4.9 7.8 7s6.9 3.9 11.2 4.9c4.4 1 9.3 1.2 14.2 1.5M114.2 362.5c3.6-.3 7.1-.7 11.6-1.8 4.4-1.2 9.7-3.2 13.2-5.3 3.6-2.1 5.5-4.4 6.4-5.5.9-1.1.9-1.1 2.1.2 1.2 1.3 3.5 3.9 6.7 6.1s7.2 4.1 12.2 5.1c5 1 11.1 1.1 16.9.1 5.9-1 11.6-3.1 15.8-5.8s7-5.8 8.4-7.3c1.4-1.6 1.4-1.6 3 .3 1.6 1.8 4.9 5.5 9.3 8 4.5 2.5 10.2 3.7 15.8 4.1 5.6.4 11.2.1 16.4-1.6 5.2-1.7 10-4.7 13-6.9s4.1-3.7 4.6-4.4c.6-.7.6-.7 2.5 1.1s5.9 5.4 10.4 7.9c4.6 2.6 9.8 4.1 14.9 4.6 5 .5 9.8-.1 14.6-1.5 4.7-1.5 9.4-3.8 12.7-6 3.3-2.2 5.2-4.4 7.1-6.5 2.3 2.5 4.7 4.9 7.8 7s6.9 3.9 11.2 4.9c4.4 1 9.3 1.2 14.2 1.5" /></g></symbol><symbol viewBox="0 0 270 271.9" id="proj"><path d="M54.8 178.3L12.2 172l-.2 22.3c23.1-.5 21.9-4.8 47.9-5.5 19.1-.6 39.7.2 58.9.2v16h32v-16l106.8 5.3V173l-42.6 6.3c-13.3-25.8-30.6-56.5-37.5-86.4-11.5 7.7-15.7 12.2-32 16 5.5 23.4 20.8 44 26.7 69.4H151v-16h-32v16H97.6c5.9-25.4 21.2-46 26.7-69.4-16.3-3.8-20.5-8.3-32-16-7 29.9-24.3 60.5-37.5 85.4z" /><path d="M117.8 67.3l16-18.3 18.3 16-16 18.3-18.3-16zm-20.2-1.1c0 51.3 74.8 51.3 74.8 0-.1-51.3-74.8-51.3-74.8 0zM241.7 269.1c-3.6-15.6-3-18.5-6-36.7-3-18.1-5.9-15.2-10-32.7h-37.4c3.5 15.2 8.1 31.4 16.5 42.2.7.9 1.8 2 2.5 2.8 13.2 15.3-8.8-9.1 5.4 5.3l8 8c15.3 13.9-6.7 8.1 21 11.1zM28.1 269.1c14.2-1.6 9.2 4.5 34.3-24.4 9.6-11.1 17.6-27.8 19.1-45H44.2l-16.1 69.4z" /><path d="M118.9 23.5c6.5-3.7 5.7-5.3 16-5.3 20.4 0 1.9-1.6 16 5.3V2.1h-32v21.4z" /></symbol><symbol viewBox="0 0 479 473" id="rest"><style>#rest .st1{fill:none;stroke:#2b2a29;stroke-miterlimit:22.9256}</style><circle cx="238.6" cy="237.2" r="228" stroke-miterlimit="10" /><g id="rest_Слой_x0020_1_1_"><path class="st1" d="M310.3 303.2c.2-37.1.2-107.3-.3-142.9-.5-35.7-1.5-37-3.6-38.4s-5.3-2.9-8.9-2.3-7.8 3.4-12 7.6c-4.1 4.2-8.1 9.9-11 16.4s-4.8 13.9-6.2 21.3-2.2 15-2 22.4 1.5 14.5 3.6 21.9c2.1 7.4 5 15.2 8.2 20.9 3.2 5.7 6.5 9.2 8.1 12.4s1.3 5.9.2 12.6c-1.1 6.7-3.2 17.4-5.3 28.2-2 10.8-3.9 21.7-4.8 31.5-.9 9.7-.9 18.4.1 24.5s3.2 9.7 6.9 12.2 9.2 4.1 13.9 3.4 8.4-3.7 10.5-7.2c2-3.4 2.4-7.4 2.6-44.5zM218.3 322.2c.1-21.1-.3-60.1-.2-80.5.1-20.5.6-22.4 2.4-24.7 1.8-2.4 4.8-5.3 7.6-9.3 2.7-3.9 5-8.9 5.7-17 .6-8.1-.6-19.4-1.8-29-1.3-9.5-2.5-17.4-3.6-23.8-1.1-6.4-2-11.6-2.8-16.7h-50.4c-1.3 5.5-2.5 11.1-3.7 19-1.3 7.8-2.4 17.9-3.4 27.1-1 9.3-1.8 17.8-.8 24.9s3.9 12.9 6.8 17.3c3 4.4 6.2 7.4 8.1 10.9 2 3.4 2.8 7.2 2.6 26.9s-1.5 55.3-1.9 74.6 0 22.4 1.8 24.9 4.8 4.3 8.1 5.3 6.9 1.1 10.9.6c4.1-.5 8.5-1.7 11.2-3.9s3.2-5.4 3.4-26.6zM190.8 121.1v67.4M209.7 121.1v66.8" /></g></symbol><symbol viewBox="0 0 479 473" id="sauna"><style>#sauna .st0{fill:none;stroke:#2b2a29;stroke-miterlimit:22.9256}</style><g id="sauna_Слой_x0020_1"><g id="sauna__1552453666224"><path class="st0" d="M90.4 213L240.8 92.3l68.5 57.7v-23.4h29.6l.8 42.1 49.1 41.2" /><path class="st0" d="M370.6 194.7L370 379l-260.9-.9 1-180.8" /><path class="st0" d="M137.3 222c2 1.6 3.9 3.1 5.6 5.3 1.8 2.2 3.3 5.1 3.7 7.8.4 2.8-.4 5.5-1.6 7.8-1.2 2.4-2.9 4.3-4.7 7-1.8 2.6-3.6 6-4.6 9.3s-1.3 6.4-.5 9.1c.8 2.7 2.8 5.1 4.9 7.4 2.2 2.4 4.5 4.7 6.8 7M311.3 222c2 1.6 3.9 3.1 5.6 5.3 1.8 2.2 3.3 5.1 3.7 7.8.4 2.8-.4 5.5-1.6 7.8-1.2 2.4-2.9 4.3-4.7 7-1.8 2.6-3.6 6-4.6 9.3s-1.3 6.4-.5 9.1c.8 2.7 2.8 5.1 4.9 7.4 2.2 2.4 4.5 4.7 6.8 7M162.4 221.5c2 1.6 3.9 3.1 5.6 5.3 1.8 2.2 3.3 5.1 3.7 7.8.4 2.8-.4 5.5-1.6 7.8-1.2 2.4-2.9 4.3-4.7 7-1.8 2.6-3.6 6-4.6 9.3-1 3.2-1.3 6.4-.5 9.1.8 2.7 2.8 5.1 4.9 7.4 2.2 2.4 4.5 4.7 6.8 7M336.3 222c2 1.6 3.9 3.1 5.6 5.3 1.8 2.2 3.3 5.1 3.7 7.8.4 2.8-.4 5.5-1.6 7.8-1.2 2.4-2.9 4.3-4.7 7-1.8 2.6-3.6 6-4.6 9.3s-1.3 6.4-.5 9.1c.8 2.7 2.8 5.1 4.9 7.4 2.2 2.4 4.5 4.7 6.8 7" /><circle class="st0" cx="241.2" cy="216.6" r="23.3" /><path class="st0" d="M242.4 247.5c-6-.3-10.4-.4-14.5-.1-4 .3-7.6.9-11 3.2s-6.5 6.4-9.1 10.6c-2.6 4.3-4.7 8.8-6.8 13.6-2.1 4.7-4.1 9.7-5.3 14.3-1.1 4.7-1.2 9.1.1 12.2 1.4 3.2 4.2 5.1 8 5.9 3.8.8 8.5.4 16 .3 7.5-.1 17.9 0 26.4.1s15.2.3 20.8.1c5.7-.1 10.5-.5 13.6-2.4 3-1.9 4.3-5.3 4.1-10.1-.2-4.8-1.9-11-4-17s-4.5-11.9-7.4-16.8c-2.9-4.9-6.3-8.9-11.8-11.2-5.3-2.1-13-2.5-19.1-2.7z" /><path class="st0" d="M246.4 307.7c3.2-1.8 6.4-3.7 7.5-6.4 1-2.7-.1-6.4-2.8-8.9s-6.9-4.1-12.5-4.7c-5.6-.7-12.5-.4-19.5-.2M210 307.8c-3.2 2.6-6.5 5.1-8.7 7.6s-3.2 5-3.7 9.2c-.5 4.2-.5 10.2.1 15.9.6 5.7 1.8 11.2 2.6 16.6.8 5.5 1.4 10.9 2.4 14.5 1.1 3.5 2.8 5.2 5.8 6s7.4.8 11-.1c3.6-.9 6.3-2.8 7.2-6.6.9-3.7.2-9.1-.8-13.9-.9-4.7-2.2-8.8-2.6-12.5-.5-3.8-.2-7.2 1.6-10.3 1.8-3 5.2-5.5 8.1-7.2 2.9-1.8 5.4-3 8.9-2.4 3.5.5 8 2.7 10.8 5.8 2.8 3.1 3.9 7.2 3.8 11.9-.1 4.7-1.2 10.2-2 15.2-.8 5.1-1.1 9.7-.9 13.2.3 3.4 1.1 5.7 4.6 6.8 3.4 1.1 9.4 1.1 13.9-.6 4.5-1.8 7.6-5.3 9.5-10.1 1.9-4.9 2.5-11.1 3.2-17.9.7-6.8 1.3-14.2-.5-20.4-1.8-6.2-6.1-11.1-9.4-14.3-3.3-3.2-5.7-4.7-8.1-6.2" /><path class="st0" d="M242.2 324.6c.1-3.3.1-6.6 0-9.4-.1-2.8-.3-5.2-.6-7.6M109.4 322.5h73.9c14.8 0 14.8-.1 14.8-.1M282.9 323.9h87.3" /></g></g><circle cx="239.6" cy="235.7" r="228" stroke-miterlimit="10" /></symbol><symbol viewBox="0 0 270 271.9" id="service"><path d="M9.9 173.9c1.4 16.4 20.2 57.6 27.1 70.6 18.7-5 14.4-10.9 21.7-10.9 68.6 0 34.6 67.7 149-8.8 38-25.4 51.4-20.2 52.3-56.5-58.8 1.3-72.3 72-144.2 51.8-31.3-8.8-11.6 4.3-18.8-13.8 17.7 8.4 64 8.4 81.5 0-2.9-34.8-16-15.7-47.7-28.4-22-8.5-30.2-52-120.9-4z" /><path d="M113.2 81.5c12.6-23.7-2-9.1 21.7-21.7 23.7 12.6 9.1-2 21.7 21.7-12.6 23.7 2 9.1-21.7 21.7-23.7-12.6-9.1 2-21.7-21.7zm5.5-49c-20.1-5.4-7-5.5-27.1-10.9-21.9 31.5-14.3 5.7-5.4 43.5H64.4v32.6h21.7c-5.4 20.1-5.5 7-10.9 27.1 31.5 21.9 5.7 14.3 43.5 5.4V152h32.6v-21.7c22 5.1 21.3 15.7 34.8 2.2 13.4-13.4 2.9-12.9-2.2-34.8h21.7V65H184c5.1-22 15.7-21.3 2.2-34.8-13.4-13.4-12.9-2.9-34.8 2.2V10.6h-32.6v21.9h-.1zM178.4 184.7c18.8 15.8 30.4-9.9 54.4-16.3-16.1-28.7-51.4 12.4-54.4 16.3zM145.8 173.9c30.4 0 42-4.8 54.4-21.7-28.2-.1-42.6 5.5-54.4 21.7z" /></symbol><symbol viewBox="0 0 479 473" id="shop"><circle cx="240.1" cy="237.2" r="228" stroke-miterlimit="10" /><path d="M119.6 117h240.2v29.6c2.6 9.5 5.2 19.1 6.4 26.8 1.2 7.7.9 13.7-.3 19.8-1.2 6.1-3.5 12.4-5.8 18.7v145.6H120.6V215.8c-1.8-3-3.6-5.9-4.9-9.6-1.4-3.7-2.3-8.1-2.5-13.7-.2-5.6.4-12.3 1.6-19.8s3.1-15.7 5.1-23.9c0-10.6-.2-21.3-.3-31.8h0zm.3 31.7c80.1 0 160.2 0 200.3-.1l40.1-.1c0 .1.1.2.1.4m-204.1-.2v67.1m42.2-67.1v67.1m41.7-67v65.6m41.4-65.7v67.5m42.5-67.6v66.5m-203.4.7c2.1 1.7 4.1 3.4 6.7 4.6 2.6 1.1 5.9 1.7 8.9 1.8 3.1 0 6.1-.6 9.4-1.7 3.3-1.1 6.9-2.9 10.6-4.6 1.3.8 2.6 1.6 5.1 2.6s6 2.5 8.9 3.4c2.9.9 4.9 1.1 7.9.9 2.9-.3 6.6-1.1 9.9-2.1 3.2-1.1 6-2.3 7.6-3.1 1.6-.9 2.3-1.3 2.9-1.7 3.4 1.4 6.7 2.9 9.6 4.2 2.9 1.3 5.4 2.4 8 3 2.6.6 5.2.6 7.6 0 2.4-.6 4.7-1.6 7.1-2.9 2.5-1.3 5.1-2.7 6.7-3.7 1.6-1 2.1-1.5 2.6-2.1 2.3 1.3 4.6 2.6 6.6 3.6 2.1 1.1 3.9 1.9 6.4 2.4s5.7 1 8.9.9c3.2-.1 6.4-.6 9.7-1.5 3.3-.9 6.6-2.3 9.9-3.6 3.4 1.2 6.6 2.5 10.3 3.4 3.6.9 7.5 1.5 11.4 1.5 4 0 8.1-.7 11.5-1.8 3.5-1.1 6.4-2.6 9.3-4.2 2.7 1.4 5.4 2.6 8.7 3.7 3.4 1 7.4 1.7 11.1 1.5 3.7-.2 7.1-1.4 9.8-2.9 2.6-1.6 4.6-3.5 6.5-5.5m-210.2 38.4H246v77.1h-95.9v-77.1h0zm126.7 107.2V250.4h53.5c0 35.7 0 71.4.1 89.2.1 17.8.4 17.8.7 17.8h1.3" stroke-miterlimit="22.926" /></symbol><symbol viewBox="0 0 270 271.9" id="update"><path d="M8.9 237c0 12.8 9.1 21.9 21.9 21.9h197c40 0 32.8-21.3 32.8-60.2h-21.9c0 52.3 19.5 38.3-191.6 38.3-20.1 0-16.4-11.7-16.4-38.3H8.9V237zM123.9 154.9c-16.9-11.3-12.2-16.4-32.8-21.9-10.5 21.8-4.6 21.1 11.9 37.2 11.5 11.2 19.4 20.2 31.8 28.5 12.5-8.3 20.3-17.3 31.8-28.5 16.5-16.1 22.4-15.4 11.9-37.2-20.7 5.5-15.9 10.6-32.8 21.9V18.1h-21.9v136.8h.1z" /></symbol></defs></svg>